<?xml version="1.0" encoding="utf-8"?>
<!-- Generator: Adobe Illustrator 24.2.3, SVG Export Plug-In . SVG Version: 6.00 Build 0)  -->
<svg version="1.1" id="Layer_1" xmlns="http://www.w3.org/2000/svg" xmlns:xlink="http://www.w3.org/1999/xlink" x="0px" y="0px"
	 viewBox="0 0 576 576" style="enable-background:new 0 0 576 576;" xml:space="preserve">
<style type="text/css">
	.st0{fill:#F0ADAD;}
</style>
<g>
	<path class="st0" d="M417.06,231.81c-2.04-7.37-4.36-14.76-6.61-21.9c-2.43-7.74-4.95-15.71-7.08-23.61
		c-1.62-5.97-2.66-12.32-3.63-18.45c-1.17-7.19-2.35-14.62-4.54-21.73c-5.42-17.7-19.62-33.8-37.19-39.62
		c-15.97-5.27-34.22-3.3-50.82-3.3h-128c-12.72,0-26.1,2.23-37.7,7.63c-14.71,6.86-26.13,19.8-30.89,35.29
		c-2.19,7.12-3.38,14.54-4.53,21.73c-1,6.13-2.03,12.48-3.65,18.45c-2.14,7.9-4.65,15.88-7.08,23.61
		c-2.24,7.15-4.56,14.54-6.61,21.9l-0.15,0.53v0.53c0,15.27,10.4,33.14,56.57,37.14v166.19c0,3.49,0.66,6.84,1.86,9.93
		c7.37,6.82,18.98,12.76,33.63,17.3c19.64,6.13,44.73,9.74,72.41,9.74c27.68,0,52.77-3.61,72.41-9.74
		c15.33-4.76,27.34-11.02,34.64-18.28c1-2.81,1.53-5.82,1.53-8.94V269.93c45.31-4.2,55.59-21.9,55.59-37.06v-0.53L417.06,231.81z
		 M212.4,110.42c2.43,0.04,4.82,0.07,7.17,0.07h80.62c-0.11,0.38-0.16,0.78-0.27,1.17c-5.58,20.69-24.54,35.99-46.99,35.99
		c-22.48,0-41.44-15.33-47.01-36.08c-0.13-0.42-0.2-0.88-0.31-1.31C207.89,110.31,210.15,110.37,212.4,110.42z M362.2,262.07
		c-0.22-17.14-0.75-34.31-0.27-51.44c0.44-16.26-1.15-32.66,8.6-46.19c3.12-4.32-4.07-8.49-7.17-4.18
		c-10.91,15.13-9.4,33.91-9.78,52.06c-0.35,17.12-0.26,34.22-0.04,51.31c0.11,0,0.2,0.04,0.29,0.04v138.83
		c0.55,0.66,1.09,1.31,1.66,1.97c0.78,0.91,1.59,1.82,2.41,2.72c-1.35,0.44-2.72,0.86-4.07,1.28v27.72c0,1.75-0.24,3.41-0.68,5.04
		c-6.04,5.37-15.73,10.37-28.38,14.42c-10.55,3.39-23.19,6.08-37.5,7.77c-10.53,1.26-21.99,1.95-34.22,1.95
		c-12.23,0-23.67-0.69-34.2-1.95c-14.33-1.7-26.95-4.38-37.52-7.77c-12.06-3.85-21.42-8.59-27.52-13.69
		c-0.57-1.82-0.88-3.74-0.88-5.77V212.45c0-0.58,0.51-37.48-10.09-52.19c-3.1-4.31-10.31-0.15-7.19,4.18
		c9.76,13.52,8.16,29.93,8.61,46.19c0.47,17.15-0.04,34.33-0.27,51.48c-38.19-3.61-47.36-17.01-47.61-28.72
		c1.99-7.06,4.23-14.23,6.41-21.13c2.43-7.81,4.96-15.86,7.15-23.91c1.73-6.37,2.79-12.92,3.81-19.27
		c1.15-7.23,2.26-14.07,4.29-20.71c3.96-12.96,13.41-23.91,25.57-29.95c16.08-8.01,34.89-8.65,53.29-8.34
		c0.09,0.42,0.15,0.86,0.24,1.3c5.68,25.57,28.52,44.75,55.79,44.75c27.15,0,49.93-19.03,55.71-44.45c0.09-0.38,0.15-0.78,0.22-1.17
		h20.69c10.55,0,19.91,0.62,29.82,4.82c13.47,5.69,24.09,19.09,28.38,33.05c2.01,6.64,3.12,13.49,4.29,20.71
		c1,6.35,2.06,12.9,3.8,19.27c2.19,8.05,4.73,16.1,7.15,23.89c2.19,6.92,4.43,14.07,6.41,21.15
		C409.14,245.06,400.03,258.42,362.2,262.07z"/>
	<g>
		<g>
			<path class="st0" d="M417.27,341.85c-3.01-4.38-5.57-9.16-8.65-13.5c-0.18-0.27-0.38-0.53-0.58-0.8
				c-1.26,0.66-2.52,1.39-3.74,2.23c-0.77,0.51-1.5,1.06-2.21,1.62c-10.13,8.08-14.38,20.26-15.37,23.52l9.03,13.28l21.59-14.67
				l0.02-0.02l5.42-3.69C420.94,347.16,419.1,344.51,417.27,341.85z M485.78,380.14c-0.81-0.8-1.78-1.4-2.61-1.57
				c-16.26-3.16-32.39-7.03-48.34-11.57c-0.24-0.24-0.51-0.46-0.82-0.62c-0.09-0.33-0.22-0.64-0.44-0.99
				c-2.35-3.41-4.73-6.82-7.08-10.22c-0.2-0.27-0.38-0.57-0.58-0.84l-5.44,3.69l-23.89,16.24c-0.46,0.31-1,0.47-1.53,0.47
				c-0.18,0-0.35-0.02-0.53-0.04c-0.71-0.15-1.33-0.55-1.75-1.15l-11.28-16.61c-0.42-0.62-0.57-1.37-0.42-2.08
				c0.02-0.11,0.05-0.24,0.09-0.35c0.71-3.34,5.62-17.92,17.57-27.45c0.8-0.64,1.62-1.26,2.48-1.84c1.06-0.73,2.15-1.39,3.25-1.97
				c-0.91-0.95-1.86-1.84-2.88-2.66c-7.19-5.8-16.53-8.36-25.55-9.36c-4.78-0.53-9.53-0.75-14.31-0.89h-0.09
				c-2.59-0.09-5.2-0.16-7.81-0.15c-3.1,0.02-6.19,0.16-9.27,0.57c-1.42,0.18-2.85,0.44-4.27,0.73c-0.75-1.33-2.3-2.04-3.83-1.53
				c-2.5,0.77-4.98,1.53-7.46,2.32c-0.78,0.24-1.5,0.86-1.9,1.61c-0.31,0.58-0.44,1.41-0.29,2.12
				c-10.09,4.74-18.96,12.1-25.93,20.88c-17.61,22.1-18.27,48.41-11.72,74.64c1.1,4.36,2.87,8.74,5.91,12.1
				c4.16,4.51,8.52,4.58,14.18,3.34c8.56-1.92,17.17-3.69,25.64-6.06c6.35-1.79,12.68-3.7,18.94-5.8c2.61-0.86,5.22-1.73,7.81-2.66
				c8.74-3.08,17.37-6.46,25.88-10.15c0.47-0.2,0.86-0.51,1.2-0.84c0.26,0.24,0.53,0.47,0.91,0.64
				c13.69,6.57,27.77,13.18,43.07,14.54c7.35,0.62,14.85,0.09,21.88-2.21c6.75-2.21,12.66-6.08,17.76-11.02
				c5.71-5.51,10.24-12.15,14.69-18.69C487.97,383.31,487.1,381.45,485.78,380.14z M336.63,319.4h0.02
				c-0.07,0.07-0.15,0.16-0.2,0.26C336.51,319.57,336.56,319.48,336.63,319.4z M353.82,408.47c-4.56,1.39-9.14,2.7-13.7,4.07
				c-10.22,3.14-20.6,5.77-31.06,7.99c-9.12,1.93-11.86-5.89-13.45-13.61c-6.41-31-3.3-60.37,25.31-80.07
				c2.45-1.72,5.04-3.23,7.7-4.53c-1.13,6.57-1.44,13.08-0.99,19.49c0.02,0.6,0.07,1.2,0.13,1.79v0.09c0.07,0.75,0.15,1.5,0.24,2.24
				c0.07,0.66,0.15,1.31,0.26,1.95c0.05,0.53,0.15,1.04,0.22,1.57c0.02,0.2,0.05,0.4,0.11,0.6c0.07,0.49,0.16,1,0.26,1.51
				c1,5.6,2.55,11.08,4.56,16.42c0.2,0.58,0.44,1.17,0.66,1.73c2.45,6.19,5.49,12.17,9.03,17.9c0.4,0.66,0.8,1.3,1.22,1.93
				c1.64,2.57,3.39,5.09,5.24,7.54c0.46,0.62,0.91,1.22,1.39,1.82c0.42,0.53,0.82,1.04,1.24,1.57c0.53,0.68,1.08,1.35,1.64,2.01
				c0.55,0.66,1.09,1.31,1.66,1.97c0.78,0.91,1.59,1.82,2.41,2.72C356.54,407.64,355.17,408.06,353.82,408.47z M454.19,407.6
				c-12.77,4.74-26.73,2.65-39.31-1.68c-6.64-2.32-13.01-5.26-19.36-8.3c12.94-7.41,25.48-15.51,37.52-24.31
				c15.26,4.36,30.68,8.08,46.22,11.17C472.71,393.93,465.27,403.47,454.19,407.6z"/>
		</g>
	</g>
	<path class="st0" d="M306.14,235.63v-16.64c0-3.85-2.08-7.43-5.42-9.34l-40.88-23.43c-3.3-1.9-7.41-1.9-10.69,0l-40.88,23.43
		c-3.34,1.92-5.42,5.49-5.42,9.34v16.64h-14.31v33.27h14.31v16.64c0,3.85,2.08,7.43,5.42,9.34l40.88,23.43
		c1.64,0.93,3.49,1.41,5.35,1.41c1.84,0,3.7-0.47,5.35-1.41l40.88-23.43c3.34-1.92,5.42-5.49,5.42-9.34V268.9h14.31v-33.27H306.14z
		 M298.84,285.54c0,1.24-0.68,2.39-1.73,3.01l-40.9,23.43c-1.06,0.6-2.37,0.6-3.45,0l-40.88-23.43c-1.08-0.62-1.73-1.77-1.73-3.01
		V268.9h88.69V285.54z M298.84,235.63h-88.69v-16.64c0-1.24,0.66-2.39,1.73-3.01l40.88-23.43c0.55-0.31,1.13-0.46,1.73-0.46
		c0.6,0,1.19,0.15,1.72,0.46l40.9,23.43c1.06,0.62,1.73,1.77,1.73,3.01V235.63z"/>
</g>
</svg>
