<?xml version="1.0" encoding="utf-8"?>
<!-- Generator: Adobe Illustrator 24.2.3, SVG Export Plug-In . SVG Version: 6.00 Build 0)  -->
<svg version="1.1" id="Layer_1" xmlns="http://www.w3.org/2000/svg" xmlns:xlink="http://www.w3.org/1999/xlink" x="0px" y="0px"
	 viewBox="0 0 200 200" style="enable-background:new 0 0 200 200;" xml:space="preserve">
<style type="text/css">
	.st0{fill:#FFFFFF;}
</style>
<g>
	<circle cx="100" cy="100" r="97.5"/>
	<g>
		<g>
			<path class="st0" d="M145.54,56.67v42.39c0.67-0.91,1.3-1.9,1.93-2.92V56.67c0-3.98-3.24-7.23-7.22-7.23h-21.67
				c-0.24,0.64-0.48,1.28-0.73,1.93h22.4C143.16,51.36,145.54,53.74,145.54,56.67z"/>
			<path class="st0" d="M54.11,135.41V56.67c0-2.92,2.38-5.3,5.3-5.3h13.92c0.27-0.64,0.56-1.29,0.89-1.93h-14.8
				c-3.98,0-7.22,3.24-7.22,7.23v79.46c0,0.19,0.01,0.39,0.02,0.58C52.79,136.19,53.42,135.76,54.11,135.41z"/>
			<path class="st0" d="M111.65,49.44H87.07c-0.11,0.66-0.31,1.31-0.56,1.93h24.4C111.15,50.72,111.4,50.08,111.65,49.44z"/>
			<path class="st0" d="M102.47,164.04c-1.63,0.94-3.67,0.94-5.3,0l-21.36-12.33c-0.65,0.31-1.29,0.68-1.87,1.15l22.27,12.86
				c1.11,0.64,2.36,0.96,3.61,0.96c1.25,0,2.5-0.32,3.61-0.96l23.15-13.37c-1.77,0.34-3.55,0.63-5.34,0.86L102.47,164.04z"/>
			<path class="st0" d="M69.68,148.17l-3.23-1.87c0,0.01-0.01,0.01-0.01,0.02c-0.31,0.55-0.62,1.1-0.95,1.65l2.77,1.6
				C68.69,149.07,69.17,148.6,69.68,148.17z"/>
			<path class="st0" d="M147.46,106.38c-0.58,0.49-1.23,0.98-1.93,1.42v23.1c0.7,0.13,1.34,0.38,1.93,0.74V106.38z"/>
			<path class="st0" d="M56.14,141.81c-0.14,0.16-0.27,0.34-0.4,0.54c0.02,0.01,0.04,0.02,0.06,0.03l4.13,2.39
				c0.09-0.17,0.19-0.33,0.28-0.5c0.18-0.33,0.37-0.66,0.56-0.99c0.04-0.06,0.07-0.13,0.11-0.19L57.26,141
				C56.88,141.15,56.49,141.4,56.14,141.81z"/>
			<path class="st0" d="M73.09,57.23c-0.7,0.16-1.42,0.26-2.16,0.28c-0.09,0-0.17,0-0.27,0c-0.12,0-0.25,0-0.38-0.01
				c-0.06,0-0.12,0-0.18-0.01c-0.01,0-0.01,0-0.02,0c-0.06,0-0.12-0.01-0.18-0.01c-0.21-0.01-0.44-0.04-0.66-0.07
				c-0.13-0.02-0.26-0.03-0.39-0.06c-0.19-0.03-0.38-0.07-0.57-0.11c-0.14-0.03-0.29-0.07-0.43-0.11c-0.19-0.05-0.37-0.11-0.55-0.17
				c-0.06-0.02-0.12-0.04-0.17-0.06c-0.26-0.1-0.51-0.23-0.74-0.36c-0.06-0.03-0.11-0.07-0.17-0.11c-0.03-0.02-0.05-0.04-0.08-0.06
				c-0.05-0.04-0.1-0.08-0.15-0.12c-0.22-0.18-0.41-0.38-0.55-0.61c-0.03-0.05-0.06-0.1-0.09-0.16c-0.08-0.16-0.14-0.33-0.18-0.52
				c-0.04-0.22-0.13-0.4-0.26-0.55c-0.05-0.06-0.1-0.11-0.16-0.16c-0.27-0.21-0.62-0.32-0.98-0.32c-0.41,0-0.81,0.14-1.08,0.39
				c-0.03,0.03-0.05,0.06-0.08,0.09c-0.05,0.07-0.1,0.14-0.13,0.22c-0.01,0.03-0.02,0.05-0.03,0.08c-0.05,0.16-0.06,0.34-0.02,0.54
				c0.62,3.21,4.41,4.59,7.75,4.67c0.11,0,0.22,0,0.32,0h0.01c0.13,0,0.26,0,0.39-0.01h0c0.09,0,0.18-0.01,0.27-0.01
				c0.08,0,0.16-0.01,0.24-0.01c0.05,0,0.1-0.01,0.15-0.01c0.1-0.01,0.2-0.02,0.31-0.03c0.07-0.01,0.14-0.01,0.2-0.02
				c-0.18,0.52-0.35,1.05-0.5,1.59c-0.54,1.98-0.82,4-1.27,5.99c-0.47,2.12-1.05,4.38-1.95,6.51c-0.24-0.06-0.47-0.12-0.71-0.18
				c-0.13-0.03-0.27-0.06-0.4-0.09c-0.13-0.03-0.26-0.06-0.39-0.08c-0.13-0.03-0.26-0.05-0.39-0.07c-0.13-0.02-0.26-0.04-0.38-0.06
				c-0.51-0.07-1-0.11-1.48-0.11c-0.88,0-1.7,0.13-2.46,0.46c-0.11,0.04-0.22,0.1-0.32,0.15c-0.42,0.21-0.82,0.49-1.19,0.84
				c-0.05,0.04-0.09,0.09-0.14,0.14c-0.32,0.32-0.62,0.7-0.9,1.14c-1.51,2.42-1.12,5.42,2.22,6.11c0.11,0.02,0.22,0.04,0.33,0.06
				c0.06,0.01,0.11,0.02,0.16,0.02c0.16,0.02,0.32,0.04,0.48,0.04c0.11,0.01,0.21,0.01,0.32,0.01c0.78,0,1.5-0.16,2.17-0.43
				c0.08-0.03,0.17-0.07,0.25-0.11c0.66-0.31,1.26-0.74,1.81-1.25c0.05-0.05,0.1-0.1,0.16-0.15c0.26-0.25,0.5-0.52,0.73-0.8
				c0.06-0.08,0.13-0.15,0.19-0.23c0.06-0.08,0.12-0.16,0.18-0.24c0.06-0.08,0.12-0.16,0.18-0.24c0.19-0.26,0.36-0.53,0.53-0.8
				c0.04-0.06,0.08-0.13,0.12-0.2c0.08-0.14,0.17-0.28,0.25-0.42c0.05-0.09,0.1-0.18,0.15-0.27c0.05-0.09,0.1-0.18,0.15-0.28
				c3.12,0.86,6.2,1.83,9.43,2.33c0.44,0.07,0.89,0.13,1.35,0.18c0.18,0.02,0.35,0.04,0.53,0.06c0.85,0.09,1.73,0.14,2.61,0.14
				c0.86,0,1.72-0.05,2.56-0.17c0.17-0.02,0.33-0.05,0.5-0.08c1.33-0.24,2.58-0.67,3.68-1.36c0.14-0.09,0.27-0.18,0.4-0.27
				c0.13-0.1,0.26-0.19,0.39-0.3c0.71-0.59,0.56-1.44,0.06-1.92c-0.04-0.04-0.09-0.09-0.15-0.12c-0.03-0.02-0.07-0.05-0.11-0.07
				c-0.04-0.02-0.07-0.04-0.11-0.06c-0.04-0.02-0.08-0.03-0.12-0.05c-0.06-0.02-0.12-0.04-0.18-0.05c-0.08-0.01-0.16-0.02-0.25-0.01
				c-0.03,0-0.07,0-0.1,0.01c-0.03,0-0.06,0.01-0.1,0.02c-0.01,0-0.01,0-0.01,0c-0.02,0.01-0.05,0.01-0.07,0.02
				c-0.03,0.01-0.05,0.01-0.07,0.02c-0.03,0.01-0.07,0.03-0.1,0.04s-0.07,0.03-0.1,0.06c-0.02,0.01-0.03,0.02-0.05,0.03
				c-0.03,0.02-0.07,0.05-0.1,0.07c-0.02,0.01-0.03,0.03-0.05,0.04c-0.54,0.45-1.14,0.79-1.79,1.04c-0.12,0.05-0.24,0.09-0.36,0.13
				c-0.12,0.04-0.24,0.08-0.37,0.12c-0.25,0.07-0.5,0.13-0.75,0.18c-0.13,0.03-0.26,0.05-0.39,0.07c-0.71,0.12-1.45,0.16-2.2,0.16
				c-1.36,0-2.74-0.16-4-0.37c-0.21-0.03-0.42-0.07-0.62-0.1c-0.2-0.04-0.41-0.07-0.6-0.11c-2.63-0.5-5.17-1.24-7.73-1.95
				c0.87-2.18,1.44-4.36,1.79-5.81c0.8-3.28,1.33-6.49,2.45-9.69c1.94-0.67,3.72-1.73,5.24-3.06c1.4-1.22,2.96-2.92,3.9-4.74
				c0.33-0.63,0.58-1.28,0.72-1.93c0.13-0.6,0.18-1.21,0.1-1.8c-0.07-0.59-0.26-1.05-0.52-1.4c-0.05-0.06-0.1-0.13-0.15-0.18
				c-0.03-0.03-0.05-0.06-0.08-0.08c-0.06-0.06-0.11-0.1-0.17-0.15c-0.09-0.07-0.18-0.13-0.28-0.19c-0.1-0.06-0.2-0.1-0.31-0.15
				c0,0,0,0,0,0c-0.08-0.03-0.17-0.06-0.25-0.08c-0.02,0-0.03-0.01-0.05-0.01c-0.09-0.02-0.17-0.04-0.26-0.06c0,0,0,0,0,0
				c-0.1-0.01-0.2-0.03-0.29-0.04h-0.02c-0.1-0.01-0.19-0.01-0.29-0.01h-0.01c-0.17,0-0.33,0.01-0.5,0.03c-0.01,0-0.02,0-0.03,0
				c-0.08,0.01-0.17,0.02-0.25,0.04c-0.04,0.01-0.09,0.02-0.13,0.02c-0.13,0.02-0.25,0.05-0.38,0.08c-0.02,0.01-0.04,0.01-0.06,0.01
				c-0.17,0.04-0.34,0.1-0.5,0.16c-0.07,0.03-0.15,0.06-0.23,0.09c-0.1,0.04-0.2,0.08-0.3,0.13c-0.09,0.04-0.17,0.08-0.25,0.12
				c-0.21,0.1-0.41,0.22-0.61,0.34c-0.08,0.05-0.15,0.1-0.23,0.15c-0.19,0.13-0.36,0.26-0.52,0.41c-0.86,0.75-1.54,1.63-2.12,2.58
				c-0.37,0.62-0.7,1.27-0.99,1.93c-0.67,1.49-1.18,3.04-1.76,4.46C73.47,56.29,73.28,56.76,73.09,57.23z M65.95,78.09
				c-0.27,0.32-0.79,0.79-1.39,1.17c-0.11,0.07-0.23,0.14-0.35,0.2c-0.08,0.04-0.16,0.09-0.24,0.12c-0.08,0.04-0.16,0.07-0.24,0.11
				c-0.06,0.03-0.13,0.05-0.19,0.07c0,0-0.01,0-0.01,0c-0.07,0.03-0.15,0.05-0.22,0.07c-0.07,0.02-0.14,0.04-0.21,0.05
				c-0.01,0-0.01,0-0.02,0c-0.07,0.01-0.14,0.02-0.2,0.03c-0.14,0.01-0.28,0.01-0.41,0c-0.02,0-0.04-0.01-0.07-0.01c0,0,0,0-0.01,0
				c-0.06-0.01-0.11-0.02-0.16-0.04c-0.14-0.04-0.27-0.12-0.39-0.22c-0.01-0.01-0.03-0.03-0.04-0.04c-0.04-0.04-0.08-0.09-0.12-0.14
				c-0.03-0.03-0.05-0.07-0.07-0.1c-0.02-0.04-0.05-0.07-0.07-0.12c-0.02-0.03-0.03-0.07-0.05-0.1c-0.34-0.74,0.48-2,1-2.56
				c0.04-0.04,0.08-0.08,0.12-0.12c0.08-0.07,0.16-0.14,0.23-0.2c0.2-0.15,0.39-0.27,0.6-0.35c0.07-0.03,0.15-0.06,0.22-0.08
				c0.02-0.01,0.04-0.01,0.06-0.01c0.07-0.02,0.14-0.04,0.21-0.05c0.18-0.03,0.36-0.05,0.55-0.05c0.15,0,0.31,0.01,0.47,0.03
				c0.16,0.02,0.32,0.04,0.49,0.07c0.11,0.02,0.23,0.04,0.34,0.06c0.5,0.1,0.99,0.2,1.48,0.32C66.87,76.86,66.44,77.49,65.95,78.09z
				 M79.6,49.44c0.22-0.26,0.45-0.5,0.69-0.72c0.07-0.06,0.14-0.13,0.23-0.2c0.03-0.02,0.05-0.04,0.08-0.07
				c0.05-0.04,0.1-0.08,0.15-0.12c0.07-0.05,0.14-0.1,0.22-0.15c0.06-0.04,0.11-0.07,0.17-0.11c0.04-0.02,0.07-0.04,0.11-0.07
				c0.25-0.13,0.49-0.23,0.7-0.23c0.07,0,0.13,0.01,0.19,0.03c0.03,0.01,0.06,0.03,0.08,0.04c0.13,0.09,0.23,0.26,0.26,0.55
				c0.03,0.31-0.05,0.67-0.19,1.03c-0.24,0.64-0.67,1.29-0.95,1.76c-0.04,0.06-0.07,0.11-0.11,0.17c-1.06,1.65-2.54,3.13-4.26,4.24
				c-0.17,0.11-0.34,0.2-0.51,0.3c0.53-1.5,1.08-3.1,1.85-4.54C78.68,50.67,79.1,50.02,79.6,49.44z"/>
			<path class="st0" d="M84.56,59.84c-2.18,2.56-3.77,7.14-2.18,10.34c0.23,0.46,0.51,0.85,0.83,1.17c0.11,0.11,0.22,0.2,0.33,0.3
				c0.12,0.09,0.23,0.17,0.36,0.25c0.69,0.43,1.49,0.63,2.31,0.63c0.75,0,1.52-0.17,2.24-0.48c0.14-0.06,0.29-0.13,0.42-0.2
				c0.07-0.04,0.14-0.07,0.21-0.11c0.14-0.08,0.27-0.16,0.4-0.25c0.06-0.04,0.13-0.09,0.19-0.14c0.14,0.18,0.31,0.34,0.52,0.48
				c0.79,0.54,1.59,0.77,2.37,0.77c0.68,0,1.35-0.18,1.99-0.48c0.08-0.04,0.15-0.07,0.23-0.11c0.08-0.04,0.15-0.08,0.23-0.12
				c0.11-0.06,0.22-0.13,0.33-0.2h0c0.15-0.1,0.29-0.2,0.44-0.3h0c0.11-0.08,0.22-0.16,0.32-0.25c0.11-0.09,0.21-0.17,0.32-0.26
				c0.21-0.18,0.42-0.37,0.62-0.57c0.17-0.16,0.33-0.34,0.5-0.51c0.19-0.21,0.38-0.43,0.57-0.65c0.09-0.11,0.18-0.22,0.27-0.33
				c0,0,0,0,0,0c0.06-0.07,0.12-0.15,0.18-0.22c0.18-0.23,0.35-0.45,0.51-0.68c0.05-0.08,0.11-0.15,0.16-0.23
				c-0.33,0.47,0.2,2.07,0.41,2.56c0.36,0.86,0.98,1.6,1.87,1.98c0.04,0.02,0.08,0.03,0.12,0.05c0.12,0.05,0.24,0.09,0.36,0.13
				c0.08,0.03,0.16,0.05,0.25,0.07c0.08,0.02,0.17,0.04,0.25,0.06c0.13,0.02,0.25,0.04,0.38,0.06c0.08,0.01,0.16,0.02,0.25,0.02
				c0.13,0.01,0.26,0.01,0.39,0.01c0.71,0,1.43-0.13,2.1-0.37c0.17-0.06,0.33-0.12,0.5-0.2c0.08-0.04,0.16-0.07,0.24-0.11
				c0.07-0.03,0.13-0.07,0.2-0.1c0.03-0.01,0.05-0.03,0.08-0.04c0.06-0.04,0.13-0.07,0.19-0.11c0,0,0,0,0,0
				c0.08-0.04,0.15-0.09,0.22-0.14h0c0.07-0.05,0.15-0.1,0.22-0.15c0,0,0,0,0,0c0.07-0.05,0.14-0.1,0.21-0.15
				c0.38,0.79,1.13,1.38,2.16,1.55c0.2,0.03,0.39,0.05,0.58,0.05c0.18,0,0.36-0.01,0.54-0.04c0.09-0.01,0.19-0.03,0.28-0.05
				c0.39-0.09,0.76-0.24,1.12-0.43c0.1-0.05,0.2-0.11,0.29-0.17c0.1-0.06,0.19-0.12,0.29-0.19s0.19-0.13,0.28-0.2
				c0.05-0.03,0.09-0.07,0.14-0.1c0.09-0.07,0.18-0.14,0.27-0.22c0.13-0.11,0.27-0.22,0.39-0.33c0.09-0.08,0.17-0.15,0.26-0.23
				c0.25-0.23,0.5-0.46,0.74-0.68c0.4-0.37,0.79-0.74,1.18-1.13c0,1.26,0.27,2.45,1.35,3.19c0.04,0.03,0.08,0.06,0.12,0.08
				c0.08,0.05,0.17,0.1,0.25,0.15c0.55,0.29,1.12,0.42,1.68,0.42c0.32,0,0.63-0.04,0.95-0.11c0.06-0.01,0.12-0.03,0.18-0.04
				c0.39-0.1,0.77-0.26,1.14-0.44c0.07-0.04,0.14-0.07,0.21-0.11c0.07-0.04,0.14-0.08,0.21-0.12c0.14-0.08,0.27-0.17,0.41-0.26
				c0.13-0.09,0.26-0.19,0.39-0.28c0.58-0.46,1.12-0.95,1.63-1.47c-0.43,1.54-0.87,3.07-1.34,4.6c-1.06,3.45-2.27,6.86-3.3,10.32
				c0.06-0.22-0.91-1.3-1.08-1.52c-0.42-0.56-0.86-1.1-1.34-1.61c-0.93-1-1.97-1.84-3.16-2.52c-2.62-1.5-5.58-2.6-8.64-2.7
				c-0.21-0.01-0.42-0.01-0.63-0.01c-4,0-8.24,1.25-11.02,3.95c-0.06,0.06-0.13,0.12-0.19,0.19c-0.25,0.25-0.48,0.51-0.7,0.79
				c-0.16,0.21-0.32,0.42-0.47,0.64c-0.1,0.15-0.19,0.3-0.29,0.45c-0.28,0.46-0.52,0.95-0.72,1.46c-0.07,0.17-0.13,0.35-0.19,0.52
				c-0.06,0.18-0.11,0.36-0.16,0.54c-0.1,0.36-0.04,0.67,0.1,0.92c0.02,0.04,0.04,0.07,0.07,0.11c0.26,0.36,0.73,0.56,1.18,0.56
				c0.19,0,0.39-0.04,0.56-0.12c0.06-0.03,0.12-0.06,0.17-0.1c0.05-0.04,0.1-0.08,0.15-0.13c0.02-0.02,0.05-0.05,0.07-0.07
				c0.04-0.05,0.08-0.11,0.12-0.17c0.05-0.09,0.1-0.2,0.13-0.32c0.1-0.37,0.22-0.72,0.37-1.06c0.06-0.13,0.12-0.27,0.18-0.39
				c0.06-0.13,0.13-0.26,0.2-0.38c0.07-0.12,0.15-0.25,0.22-0.36c0.23-0.36,0.49-0.69,0.78-1c0.05-0.05,0.1-0.1,0.15-0.15
				c0.34-0.35,0.71-0.68,1.12-0.97c0.12-0.08,0.23-0.16,0.35-0.24c0.06-0.04,0.12-0.08,0.18-0.12c0.12-0.08,0.24-0.15,0.37-0.22
				c0.12-0.07,0.25-0.14,0.38-0.21c0.19-0.1,0.39-0.2,0.58-0.29c0.13-0.06,0.27-0.12,0.4-0.17c0.14-0.06,0.27-0.11,0.41-0.16
				c0.34-0.13,0.7-0.24,1.05-0.34c0,0,0,0,0,0c0.21-0.06,0.43-0.12,0.65-0.17c0.15-0.03,0.29-0.07,0.44-0.1
				c0.29-0.06,0.58-0.11,0.88-0.15c0.31-0.04,0.63-0.08,0.94-0.11c0.14-0.01,0.28-0.02,0.42-0.03c0.18-0.01,0.36-0.02,0.54-0.03
				c0.09,0,0.18,0,0.26-0.01c0.41-0.01,0.81,0,1.21,0.02c0.1,0.01,0.21,0.01,0.31,0.02c2.71,0.2,5.39,1.23,7.57,2.8
				c2.43,1.75,3.78,4.3,5.46,6.67c0.05,0.07,0.11,0.14,0.18,0.2c0.06,0.06,0.13,0.12,0.21,0.16c0.05,0.03,0.1,0.06,0.15,0.09
				c0.05,0.02,0.1,0.05,0.16,0.07c0.08,0.03,0.16,0.05,0.25,0.06c0.06,0.01,0.11,0.02,0.17,0.02c0.03,0,0.06,0,0.09,0
				c0.17,0,0.33-0.03,0.48-0.09c0.06-0.02,0.12-0.05,0.18-0.08c0.09-0.05,0.16-0.11,0.23-0.18c0.05-0.05,0.09-0.1,0.13-0.16
				c0.02-0.03,0.04-0.06,0.06-0.09c0.03-0.06,0.07-0.13,0.09-0.2c0.01-0.04,0.02-0.07,0.03-0.11c0.93-3.59,2.12-7.11,3.26-10.64
				c1.15-3.57,2.06-7.17,3.01-10.79c0.71-2.72,1.74-5.3,2.58-7.97c0.12-0.37,0.07-0.69-0.08-0.94c-0.02-0.03-0.04-0.07-0.07-0.1
				c-0.26-0.34-0.7-0.54-1.15-0.54c-0.33,0-0.66,0.11-0.9,0.34c-0.05,0.05-0.09,0.1-0.14,0.15c-0.09,0.11-0.15,0.25-0.2,0.4
				c-0.57,1.81-1.27,3.69-2.14,5.39c-0.65,1.26-1.4,2.46-2.31,3.56c-0.85,1.03-2.17,2.66-3.54,3.02c-0.14,0.04-0.27,0.05-0.38,0.05
				c-0.17,0-0.31-0.04-0.43-0.1c-0.03-0.02-0.07-0.04-0.1-0.06c-0.86-0.67-0.28-3.16-0.11-3.9c0.58-2.53,1.6-4.91,2.17-7.44
				c0.16-0.73-0.45-1.57-1.22-1.66c-0.05-0.01-0.11-0.01-0.16-0.01c-0.47,0-0.8,0.27-1.04,0.64c-0.03,0.04-0.05,0.08-0.07,0.13
				c-0.01,0.01-0.02,0.03-0.03,0.04c-0.03,0.04-0.05,0.09-0.07,0.14c-0.02,0.04-0.04,0.09-0.06,0.14c-0.13,0.32-0.22,0.65-0.28,0.93
				c-0.49,2.18-0.94,4.2-2.3,6.06c-0.82,1.12-1.78,2.17-2.79,3.12c-0.01,0.01-0.02,0.01-0.03,0.02c-0.02,0.02-0.05,0.04-0.08,0.07
				c-0.09,0.07-0.21,0.16-0.35,0.27c-0.05,0.03-0.09,0.07-0.15,0.11c-0.03,0.02-0.05,0.04-0.08,0.06c-0.05,0.04-0.11,0.08-0.17,0.12
				c-0.22,0.15-0.46,0.31-0.7,0.46c-0.08,0.05-0.16,0.1-0.25,0.15c-0.07,0.04-0.14,0.08-0.22,0.12c-0.07,0.04-0.14,0.07-0.21,0.11
				c-0.07,0.03-0.14,0.06-0.2,0.09s-0.13,0.05-0.2,0.08l-0.08,0.03c-0.05,0.02-0.1,0.03-0.15,0.04c-0.02,0.01-0.05,0.01-0.07,0.01
				c-0.17,0.03-0.31,0.02-0.41-0.04c-0.02-0.01-0.04-0.03-0.06-0.04c-0.1-0.09-0.13-0.26-0.09-0.53c0.36-2.2,0.94-4.32,1.63-6.42
				c0.13-0.38,0.26-0.76,0.39-1.14c0.07-0.19,0.13-0.38,0.2-0.57c0.14-0.38,0.27-0.76,0.41-1.14c0.03-0.07,0.06-0.15,0.08-0.22
				c0.06-0.15,0.11-0.3,0.17-0.45c0.61-1.57,1.31-3.11,1.92-4.68c0.45-1.14,0.89-2.29,1.33-3.43c0.25-0.64,0.49-1.28,0.73-1.93
				c0.39-1.03,0.77-2.05,1.15-3.08c0.35-0.94-0.45-1.56-1.26-1.56c-0.4,0-0.8,0.15-1.07,0.48c-0.05,0.06-0.09,0.12-0.12,0.18
				c-0.04,0.07-0.07,0.14-0.1,0.21c-0.46,1.26-0.93,2.51-1.41,3.76c-0.24,0.64-0.49,1.28-0.74,1.93c-0.92,2.38-1.86,4.76-2.82,7.13
				c-0.24-0.2-0.49-0.37-0.74-0.5c-0.08-0.04-0.16-0.08-0.24-0.12c-0.63-0.29-1.3-0.41-1.98-0.41c-0.4,0-0.8,0.04-1.2,0.12
				c-0.15,0.03-0.3,0.06-0.45,0.1c-0.1,0.03-0.2,0.06-0.29,0.09c-0.15,0.04-0.29,0.09-0.44,0.15c-0.13,0.05-0.25,0.1-0.38,0.15
				c-0.13,0.05-0.25,0.11-0.37,0.17c-3.1,1.52-4.68,4.45-6.45,7.17c-0.59,0.92-1.27,1.79-2.02,2.6c-0.15,0.16-0.38,0.37-0.64,0.58
				l-0.11,0.09c-0.05,0.04-0.1,0.07-0.14,0.11c-0.07,0.05-0.14,0.1-0.21,0.15c-0.68,0.48-1.47,0.92-1.98,0.92
				c-0.47,0-0.72-0.36-0.46-1.37c0.14-0.52,0.29-1.03,0.47-1.54c0.17-0.45,0.34-0.91,0.51-1.36c0.98-2.47,2.23-4.86,3.07-7.38
				c0.16-0.49-0.02-0.92-0.36-1.22c-0.03-0.03-0.07-0.06-0.1-0.09c-0.27-0.2-0.61-0.32-0.94-0.32c-0.05,0-0.1,0-0.15,0.01
				c-0.03,0-0.05,0.01-0.07,0.01c-0.07,0.01-0.15,0.03-0.22,0.06c-0.14,0.06-0.27,0.14-0.38,0.27c-0.04,0.04-0.07,0.09-0.1,0.13
				c-0.03,0.05-0.06,0.1-0.09,0.16c-0.21,0.46-0.42,0.91-0.62,1.37c-0.19-0.16-0.38-0.31-0.57-0.44c-0.13-0.09-0.26-0.16-0.4-0.24
				c-0.07-0.04-0.14-0.07-0.21-0.1c-0.07-0.03-0.14-0.06-0.21-0.09c0,0,0,0,0,0c-0.07-0.03-0.14-0.06-0.21-0.08h0
				c-0.14-0.05-0.28-0.09-0.43-0.13h0c-0.14-0.04-0.29-0.07-0.44-0.09c-0.29-0.05-0.59-0.07-0.89-0.07c-0.6,0-1.19,0.1-1.78,0.27
				c-0.12,0.04-0.23,0.07-0.35,0.12c-0.8,0.29-1.57,0.74-2.23,1.31c-0.14,0.12-0.28,0.25-0.41,0.38
				C84.8,59.56,84.68,59.69,84.56,59.84z M102.82,62.8c0.79-1.41,2.33-2.93,4.1-2.93c0.04,0,0.07,0,0.11,0
				c0.72,0.03,1.15,0.3,1.4,0.72c1.28,1.3-0.4,4.66-0.99,5.97c-0.37,0.82-0.73,1.89-1.41,2.53c-0.33,0.31-0.83,0.61-1.37,0.79
				c-0.3,0.13-0.61,0.2-0.96,0.2c-0.22,0-0.45-0.03-0.69-0.09c-0.03-0.01-0.07-0.02-0.1-0.03C100.25,69.18,102.01,64.26,102.82,62.8
				z M85.67,62.8c0.02-0.04,0.05-0.09,0.08-0.13c0.05-0.09,0.11-0.18,0.16-0.26c0.09-0.13,0.18-0.27,0.28-0.4
				c0.2-0.26,0.42-0.52,0.66-0.75c0.8-0.79,1.82-1.38,2.93-1.38c0.03,0,0.07,0,0.11,0c2.69,0.09,1.43,3.69,0.87,5.11
				c-0.04,0.1-0.08,0.2-0.12,0.3c-0.07,0.17-0.14,0.35-0.21,0.54c-0.03,0.06-0.05,0.13-0.08,0.19c-0.73,1.8-1.86,4.07-3.79,4.07
				c-0.22,0-0.45-0.03-0.69-0.09c-0.03-0.01-0.07-0.02-0.1-0.03C83.1,69.18,84.86,64.26,85.67,62.8z"/>
			<path class="st0" d="M93.04,103.49c2.14-5.66,5.07-10.99,8.6-15.9c0.33-0.46,0.29-0.91,0.05-1.25c-0.24-0.68-1.03-1.23-1.87-0.81
				c-1.88,0.92-3.46,2.3-5.06,3.63c-3.16,2.63-6.32,5.46-8.67,8.86c-0.8,1.16-1.53,2.35-2.38,3.45c-1.31-4.65-2.36-9.78-1.64-14.46
				c0.07-0.48-0.1-0.88-0.38-1.16c-0.35-0.46-0.97-0.71-1.61-0.33c-3.2,1.89-6.99-0.37-10.4-0.31c-2.84,0.06-5.52,1.67-5.63,4.74
				c-0.06,1.65,2.51,1.65,2.57,0c0.13-3.59,6.01-1.76,7.94-1.42c1.11,0.19,2.21,0.3,3.29,0.24c-0.95,4.14-2.78,8-4.49,11.86
				c-0.91,2.06-1.84,4.12-2.82,6.15c-0.91,1.9-1.84,3.93-3.34,5.46c-1.7,1.73-3.98,1.82-6.09,0.73c-2.02-1.05-2.64-3.14-2.28-5.3
				c0.67-4.05,5.03-6.66,8.68-4.3c1.39,0.9,2.68-1.32,1.3-2.22c-4.33-2.8-9.98-0.64-11.89,3.99c-0.88,2.12-1.05,4.67-0.16,6.81
				c0.99,2.36,3.41,3.79,5.86,4.21c6.08,1.05,8.82-5.24,10.92-9.75c2.06-4.42,4.37-8.98,5.88-13.7c0.33,4.02,1.36,8.06,2.49,11.76
				c0.19,0.62,0.77,0.97,1.41,0.88c0.73-0.1,1.11-0.79,1.56-1.29c1.3-1.46,2.3-3.15,3.49-4.71c2.24-2.95,4.73-5.47,7.56-7.84
				c0.05-0.04,0.09-0.08,0.14-0.12c-1.7,2.85-3.21,5.82-4.5,8.89c-1.97,4.67-4.25,10.25-3.19,15.41c0.4,1.94,1.49,3.81,3.43,4.52
				c2.27,0.84,4.6-0.22,6.67-1.12c5.42-2.35,10.82-5.03,16.81-5.44c3.07-0.21,6.63-0.15,9.5,1.09c1.69,0.74,3.22,1.89,4.43,3.28
				c0.61,0.7,1.14,1.46,1.55,2.29c0.34,0.69,0.64,1.74,1.64,1.65c1.51-0.14,0.89-2.16,0.48-3.02c-0.59-1.2-1.46-2.36-2.5-3.4
				c-1.65-1.64-3.72-2.96-5.73-3.59c-4.94-1.54-10.73-1.18-15.65,0.2c-2.67,0.75-5.22,1.86-7.76,2.96
				c-1.26,0.55-2.51,1.09-3.77,1.64c-1.19,0.52-2.52,1.21-3.86,1.19c-2.97-0.04-3.02-4.07-2.82-6.19
				C91.06,108.91,92.04,106.14,93.04,103.49z"/>
			<path class="st0" d="M68.38,137.09c7.79-0.87,18.28-3.28,19.78-12.44c0.76-4.65-3.3-7.28-7.28-8.24
				c-0.23-0.06-0.45-0.1-0.68-0.15c-0.15-0.03-0.3-0.06-0.45-0.08c-0.37-0.06-0.75-0.11-1.12-0.14c-0.22-0.02-0.44-0.03-0.67-0.04
				c0,0,0,0,0,0c-0.21-0.01-0.43-0.01-0.64-0.01c-0.04,0-0.08,0-0.12,0c-0.41,0-0.81,0.02-1.22,0.05h0
				c-0.13,0.01-0.25,0.02-0.38,0.04c-0.03,0-0.06,0.01-0.09,0.01c-0.12,0.01-0.23,0.03-0.35,0.04c-0.04,0-0.08,0.01-0.12,0.02
				c-0.11,0.01-0.22,0.03-0.33,0.05c-0.05,0.01-0.1,0.02-0.16,0.03c-0.1,0.02-0.2,0.03-0.29,0.05c-0.15,0.03-0.3,0.06-0.45,0.09
				c-0.1,0.02-0.21,0.04-0.31,0.07c-0.21,0.05-0.41,0.1-0.62,0.16c-0.21,0.06-0.41,0.12-0.62,0.18c-0.2,0.06-0.41,0.13-0.61,0.2
				c-0.1,0.03-0.2,0.07-0.31,0.1c-1.32,0.47-2.61,1.06-3.87,1.75c-2.13,1.17-4.12,2.76-5.32,4.9c-0.88,1.56-1.99,4.35-0.22,5.62
				c0.23,0.17,0.46,0.24,0.67,0.24c0.29,0,0.55-0.13,0.76-0.33c0.01-0.01,0.03-0.03,0.04-0.04c0.04-0.05,0.08-0.1,0.12-0.15
				c0.04-0.05,0.07-0.11,0.1-0.16c0.22-0.44,0.25-0.99-0.07-1.44c-0.14-1.96,1.91-4.12,3.27-5.17c1.7-1.3,3.76-2.25,5.78-2.95
				c0.58-0.2,1.15-0.36,1.72-0.49c0.17-0.04,0.35-0.07,0.52-0.11c0.79-0.15,1.57-0.23,2.37-0.23c0.79,0,1.58,0.08,2.39,0.25
				c2.03,0.42,4.45,1.1,5.6,2.99c2.08,3.42-2.14,7.8-4.79,9.46c-3.37,2.11-7.35,2.8-11.26,3.24c0.44-1.52,0.88-3.04,1.32-4.56
				c0.72-2.47,1.39-5.79,4.06-6.88c1.02-0.41,1.05-1.67,0.5-2.26c-0.01-0.01-0.03-0.03-0.04-0.04c-0.01-0.01-0.03-0.03-0.04-0.04
				c-0.03-0.02-0.06-0.05-0.09-0.07c-0.01-0.01-0.03-0.02-0.05-0.03c-0.03-0.02-0.06-0.04-0.1-0.05c-0.12-0.05-0.25-0.08-0.39-0.08
				c-0.15,0-0.3,0.03-0.47,0.1c-4.21,1.72-5.13,6.16-6.27,10.11c-0.67,2.3-1.32,4.61-2.01,6.9c-0.71,2.37-1.81,4.4-3.04,6.51
				c-0.04,0.07-0.08,0.13-0.12,0.2c-0.27,0.47-0.55,0.97-0.83,1.48c-0.79,1.4-1.67,2.82-2.97,3.67c-0.67,0.44-1.43,0.64-2.17,0.64
				c-1.04,0-2.06-0.4-2.8-1.16c-0.05-0.05-0.1-0.1-0.15-0.16v0c-0.05-0.05-0.09-0.11-0.14-0.17c-0.09-0.12-0.17-0.24-0.25-0.37
				c-0.08-0.13-0.15-0.26-0.21-0.4c-0.02-0.05-0.04-0.09-0.06-0.14c-0.75-1.91,0.14-4.73,1.36-6.49c0.15-0.22,0.31-0.42,0.46-0.6
				c0.15-0.18,0.32-0.34,0.49-0.49c0.12-0.11,0.25-0.21,0.38-0.3v0c0.01-0.01,0.03-0.02,0.04-0.03c0.11-0.08,0.22-0.15,0.33-0.21
				c0.42-0.25,0.87-0.42,1.33-0.52c0.16-0.04,0.31-0.06,0.47-0.08c0.21-0.03,0.42-0.04,0.64-0.04c0.62,0,1.24,0.11,1.84,0.33
				c0.12,0.04,0.24,0.09,0.36,0.14h0c0.12,0.05,0.23,0.11,0.35,0.17c0.12,0.06,0.23,0.12,0.34,0.19c0.06,0.03,0.11,0.06,0.17,0.09
				c0.08,0.04,0.16,0.06,0.25,0.08c0.04,0.01,0.08,0.01,0.12,0.02c0.17,0.02,0.34,0,0.5-0.06c0.08-0.03,0.16-0.07,0.23-0.11
				c0.04-0.02,0.07-0.05,0.1-0.07c0,0,0,0,0,0c0.03-0.03,0.06-0.05,0.09-0.08c0.56-0.53,0.7-1.55-0.16-2.07
				c-0.4-0.24-0.82-0.45-1.24-0.61c-0.17-0.07-0.34-0.13-0.52-0.18c-0.17-0.05-0.35-0.1-0.52-0.15c-0.17-0.04-0.35-0.08-0.53-0.11
				c-0.44-0.07-0.89-0.11-1.33-0.11c-0.79,0-1.58,0.12-2.33,0.36c-0.18,0.06-0.35,0.12-0.52,0.19c-0.06,0.02-0.11,0.04-0.16,0.07
				c-0.08,0.03-0.16,0.07-0.25,0.11c-0.29,0.14-0.57,0.3-0.85,0.48c-0.36,0.23-0.7,0.5-1.02,0.8c-0.06,0.05-0.11,0.1-0.16,0.16
				c-0.13,0.13-0.26,0.27-0.38,0.41c-0.13,0.15-0.25,0.3-0.37,0.46c-2.35,3.22-3.54,8.37-0.41,11.47c0.17,0.17,0.35,0.33,0.53,0.47
				c0.06,0.05,0.13,0.1,0.19,0.15c0.04,0.03,0.08,0.06,0.13,0.09c0.13,0.09,0.26,0.17,0.38,0.25c0.13,0.08,0.26,0.15,0.39,0.21
				c0.13,0.07,0.27,0.13,0.4,0.18c0.28,0.11,0.56,0.2,0.85,0.27c0.08,0.02,0.17,0.04,0.25,0.05c0.37,0.07,0.75,0.1,1.13,0.1
				c0.54,0,1.08-0.07,1.61-0.2c0.13-0.03,0.26-0.07,0.39-0.11c0.07-0.02,0.13-0.04,0.2-0.06c0.13-0.04,0.26-0.09,0.39-0.15
				c0.36-0.15,0.71-0.32,1.05-0.52c0.05-0.03,0.09-0.06,0.14-0.08c0.1-0.06,0.19-0.12,0.28-0.19c0,0,0,0,0,0
				c0.09-0.06,0.18-0.13,0.27-0.19c0.05-0.04,0.1-0.07,0.15-0.11c0.12-0.09,0.23-0.19,0.34-0.29c0.11-0.09,0.21-0.19,0.31-0.29
				c0.03-0.03,0.05-0.05,0.08-0.08c0.2-0.2,0.39-0.42,0.58-0.64c0.67-0.84,1.26-1.75,1.81-2.68c0.33-0.55,0.65-1.11,0.96-1.67
				c0.21-0.38,0.43-0.75,0.64-1.12c1.18-2.02,2.06-4.04,2.72-6.28C68.22,137.65,68.3,137.37,68.38,137.09z"/>
			<path class="st0" d="M147.46,134.2c-0.02-0.02-0.04-0.05-0.06-0.07c-0.06-0.07-0.12-0.14-0.19-0.21
				c-0.47-0.5-1.01-0.82-1.58-1.01c-0.03-0.01-0.07-0.02-0.1-0.03c-0.04-0.01-0.08-0.02-0.12-0.03c-0.04-0.01-0.08-0.02-0.12-0.03
				c-0.12-0.03-0.24-0.05-0.36-0.06c-0.08-0.01-0.16-0.02-0.24-0.03c-0.12-0.01-0.24-0.01-0.37-0.01c-0.08,0-0.16,0-0.24,0.01
				c-0.16,0.01-0.32,0.02-0.48,0.04c-1.05,0.14-2.12,0.55-3.09,1.06c0.39-3.3-1.79-7.05-2.24-10.16c-0.03-0.23-0.11-0.4-0.22-0.54
				c0.21-0.21,0.44-0.4,0.67-0.58c1.08-0.81,0.4-2.46-0.62-2.46c-0.22,0-0.45,0.07-0.68,0.25c-2.67,1.99-4.4,5.29-6.29,7.97
				c-1.67,2.36-3.3,4.59-5.74,5.99c0.81-3.52-1.08-7.78-2.2-10.91c-0.02-0.06-0.05-0.1-0.07-0.15c0.32-0.46,0.65-0.92,1-1.37
				c0.71-0.92-0.19-1.83-1.13-1.83c-0.15,0-0.29,0.02-0.44,0.07c-0.04,0.01-0.09,0.03-0.13,0.05c-0.19,0.09-0.36,0.22-0.51,0.41
				c-2.43,3.16-4.2,6.75-6.48,10.02c-1.13,1.63-2.43,3.11-3.93,4.4c-0.71,0.61-1.6,1.45-2.57,2.09c-0.17,0.08-0.35,0.15-0.52,0.22
				c-0.12,0.04-0.24,0.09-0.36,0.13c-0.18,0.06-0.37,0.12-0.56,0.16c-0.11,0.03-0.22,0.05-0.34,0.07c-0.39,0.08-0.79,0.12-1.17,0.12
				c-0.31,0-0.62-0.03-0.91-0.09c-0.08-0.02-0.17-0.04-0.25-0.06c-0.07-0.02-0.14-0.04-0.21-0.07c-0.09-0.03-0.18-0.07-0.26-0.11
				c-0.11-0.05-0.22-0.12-0.33-0.18c-0.11-0.07-0.21-0.14-0.31-0.23c-0.23-0.2-0.43-0.44-0.6-0.72c-0.05-0.08-0.09-0.17-0.14-0.26
				c-0.02-0.04-0.04-0.09-0.06-0.14c-0.04-0.09-0.08-0.19-0.11-0.3c-0.02-0.05-0.03-0.1-0.05-0.16c-0.01-0.04-0.02-0.09-0.03-0.14
				c1.48-0.38,2.93-0.9,4.1-1.81c1.59-1.24,3.44-3.15,3.95-5.18c0.13-0.51,0.12-0.99,0.01-1.43c-0.34-1.34-1.66-2.28-3.1-2.44
				c-0.09-0.01-0.17-0.02-0.25-0.02c-0.08-0.01-0.17-0.01-0.25-0.01c-0.6,0-1.16,0.12-1.7,0.32c-0.11,0.04-0.21,0.09-0.32,0.14
				c-0.13,0.06-0.26,0.13-0.38,0.2c-0.12,0.07-0.25,0.15-0.37,0.23c-0.12,0.08-0.24,0.16-0.35,0.25c-0.12,0.09-0.23,0.18-0.34,0.28
				c-0.09,0.08-0.17,0.16-0.26,0.24c-0.04,0.04-0.09,0.08-0.13,0.13c-0.29,0.3-0.56,0.62-0.81,0.96c-1.25,1.72-2.31,4.05-2.54,6.31
				c-0.05,0.46-0.51,0.99-0.77,1.36c-0.33,0.47-0.69,0.92-1.07,1.34c-0.52,0.57-1.08,1.14-1.64,1.67c-0.04,0.04-0.09,0.09-0.15,0.13
				c-0.04,0.03-0.07,0.06-0.11,0.09c-0.06,0.04-0.12,0.08-0.18,0.12c-0.03,0.02-0.07,0.04-0.11,0.06c-0.14,0.07-0.28,0.11-0.41,0.11
				h0c-0.02,0-0.04,0-0.07,0h0c-0.02,0-0.04-0.01-0.07-0.01c-0.02,0-0.04-0.01-0.06-0.02c-0.07-0.03-0.14-0.09-0.2-0.16
				c-0.02-0.02-0.03-0.05-0.05-0.07c-0.01-0.01-0.01-0.03-0.02-0.04c-0.44-0.85,0.04-1.65,0.44-2.39c0.5-0.91,1-1.82,1.51-2.72
				c0.54-0.96,1.2-2.01,1.4-3.12c0.6-3.43-2.38-4.12-4.99-4.9c-0.11-0.03-0.22-0.05-0.33-0.05c-0.28,0-0.55,0.1-0.78,0.27
				c-0.06,0.04-0.11,0.09-0.16,0.14c-0.05,0.05-0.09,0.1-0.13,0.16c-0.02,0.03-0.04,0.06-0.06,0.09c-0.03,0.06-0.06,0.12-0.09,0.19
				c-0.01,0.03-0.02,0.07-0.03,0.1c-0.57,2.16-2.6,5.6-4.2,7.16c-0.43,0.42-0.46,0.93-0.27,1.35c0.02,0.04,0.04,0.08,0.06,0.12
				c0.04,0.07,0.09,0.15,0.15,0.21c0.03,0.03,0.06,0.07,0.09,0.1c0.25,0.25,0.58,0.41,0.93,0.41c0.2,0,0.4-0.05,0.6-0.17
				c0.03-0.02,0.07-0.04,0.1-0.07c0.02-0.01,0.03-0.03,0.05-0.04c0.03-0.03,0.07-0.06,0.1-0.09c1.6-1.57,3.74-5.02,4.48-7.1
				c1.16,0.3,2.29,0.74,1.83,2.12c-0.38,1.15-2.15,3.83-2.62,4.95c-0.41,0.97-0.85,1.98-0.89,3.04c-0.05,1.07,0.38,1.86,1.34,2.36
				c0.54,0.28,1.15,0.41,1.75,0.42h0.06c0.01,0,0.02,0,0.03,0c0.02,0,0.05,0,0.07,0c0.04,0,0.08,0,0.12-0.01
				c0.08-0.01,0.16-0.02,0.24-0.03c0.09-0.02,0.18-0.04,0.26-0.07c0.09-0.03,0.17-0.06,0.25-0.09c0.03-0.01,0.06-0.02,0.08-0.04
				c0.07-0.03,0.14-0.07,0.21-0.11c0.02-0.01,0.04-0.02,0.06-0.03c0.12-0.07,0.24-0.14,0.36-0.22c0.3-0.2,0.59-0.44,0.88-0.67
				c0.88-0.69,1.71-1.47,2.44-2.32c0.54,1.02,1.13,1.88,2.09,2.55c0.13,0.09,0.26,0.17,0.4,0.25c0.13,0.08,0.27,0.15,0.41,0.21
				c0.21,0.1,0.42,0.18,0.63,0.25c0.07,0.02,0.14,0.05,0.22,0.07c0.57,0.17,1.16,0.24,1.76,0.24c0.6,0,1.21-0.08,1.81-0.21
				c0.09-0.02,0.18-0.04,0.27-0.07c0.11-0.03,0.21-0.06,0.32-0.09c0.02-0.01,0.04-0.02,0.06-0.02c0.32-0.1,0.64-0.21,0.96-0.34
				c2.79-1.16,4.75-3.49,6.63-5.74c1.06-1.28,2-2.65,2.89-4.05c0.45-0.7,0.88-1.41,1.31-2.13c0.17-0.28,1.32-1.77,1.23-2.03
				c0.69,1.92,1.36,3.92,1.55,5.89c0.13,1.27,0,2.8-1.03,3.72c-0.32,0.28-0.69,0.47-1.07,0.54c-0.09,0.02-0.19,0.03-0.28,0.04
				c-0.03,0-0.06,0-0.09,0c-0.13,0-0.26-0.01-0.38-0.05c-0.06-0.01-0.12-0.03-0.17-0.06c-0.16-0.06-0.3-0.15-0.43-0.27
				c-0.03-0.03-0.06-0.06-0.09-0.09c-0.03-0.03-0.05-0.06-0.08-0.1c0,0,0,0,0,0c-0.03-0.03-0.05-0.07-0.07-0.11
				c-0.09-0.15-0.16-0.33-0.21-0.54c-0.05-0.23-0.15-0.41-0.29-0.55c-0.09-0.1-0.2-0.17-0.31-0.23c-0.06-0.03-0.12-0.05-0.18-0.07
				c-0.09-0.03-0.19-0.05-0.28-0.05c-0.03,0-0.06,0-0.1,0h-0.01c-0.04,0-0.08,0-0.11,0.01h-0.01c-0.04,0-0.07,0.01-0.11,0.01
				c0,0-0.01,0-0.01,0c-0.04,0.01-0.07,0.01-0.11,0.02c-0.01,0-0.01,0-0.02,0c-0.04,0.01-0.08,0.02-0.12,0.04
				c-0.17,0.07-0.33,0.17-0.47,0.3c-0.99,0.97-0.02,2.37,0.71,3.15c0.39,0.41,0.89,0.74,1.44,0.96c0.21,0.08,0.42,0.15,0.63,0.21
				c0.36,0.09,0.72,0.14,1.07,0.14h0c0.42,0,0.84-0.02,1.25-0.09c1.07-0.18,1.75-0.81,2.65-1.3c0.9-0.48,1.85-0.81,2.71-1.38
				c1.7-1.11,3.13-2.59,4.34-4.21c1.12-1.49,2.17-3.04,3.24-4.56c0.36-0.51,0.71-1.06,1.08-1.62c0.5,2,1.38,3.89,1.76,5.92
				c0.25,1.35,0.24,2.68-0.74,3.73c-0.12,0.13-0.3,0.28-0.51,0.41c-0.04,0.02-0.07,0.05-0.11,0.07c-0.03,0.02-0.06,0.04-0.1,0.06
				c-0.04,0.02-0.08,0.04-0.12,0.07c-0.45,0.24-0.97,0.43-1.39,0.43c-0.55,0-0.93-0.31-0.81-1.21c0.05-0.35-0.03-0.66-0.19-0.91
				c-0.03-0.04-0.05-0.08-0.08-0.12c-0.01-0.02-0.03-0.04-0.04-0.05s-0.03-0.04-0.05-0.05c-0.02-0.02-0.03-0.03-0.05-0.05
				c-0.29-0.28-0.68-0.43-1.04-0.43c-0.49,0-0.94,0.28-1.02,0.93c-0.29,2.09,0.85,4.15,3.04,4.44c0.29,0.04,0.58,0.06,0.87,0.06
				c0.46,0,0.92-0.05,1.37-0.13c0.18-0.04,0.36-0.08,0.53-0.13c0.44-0.12,0.87-0.29,1.28-0.49c0.16-0.08,0.32-0.17,0.48-0.26
				c0.16-0.09,0.31-0.19,0.46-0.3c0.75-0.54,1.51-1.29,2.34-1.81c0.09-0.06,0.18-0.11,0.27-0.16c0.04-0.03,0.09-0.05,0.14-0.07
				c0.09-0.05,0.18-0.09,0.28-0.13c0.37-0.16,0.76-0.25,1.18-0.25c0.24,0,0.48,0.03,0.73,0.1c0.46,0.12,0.78,0.34,1,0.62
				c0.76,0.97,0.27,2.7-0.34,3.74c-1.46,2.48-4.41,3.81-7,4.77c-1.44,0.54-2.9,1.03-4.37,1.47c-5.6,1.71-11.41,2.8-17.25,3.24
				c-1.97,0.15-3.93,0.22-5.9,0.22c-1.51,0-3.02-0.04-4.53-0.13c-0.33-0.02-0.67-0.04-1-0.06c-0.17-0.01-0.34-0.02-0.5-0.04
				c-0.67-0.05-1.33-0.11-2-0.18c-0.17-0.02-0.33-0.03-0.5-0.05c-0.33-0.04-0.67-0.07-1-0.12c-0.17-0.02-0.33-0.04-0.5-0.06
				c-0.83-0.11-1.66-0.23-2.49-0.36c-0.17-0.03-0.33-0.05-0.5-0.08c-0.33-0.06-0.66-0.11-0.99-0.17c-0.66-0.12-1.32-0.25-1.98-0.38
				c-0.38-0.08-0.76-0.16-1.15-0.24c-0.64-0.13-1.28-0.27-1.92-0.4c-0.26-0.05-0.52-0.1-0.77-0.15c0,0,0,0,0,0
				c-0.26-0.05-0.52-0.1-0.78-0.15c-0.26-0.05-0.52-0.1-0.78-0.14c-0.26-0.05-0.52-0.09-0.78-0.13c-0.13-0.02-0.26-0.04-0.39-0.06
				c-0.26-0.04-0.52-0.08-0.78-0.12c-1.7-0.25-3.4-0.41-5.09-0.41c-0.92,0-1.83,0.05-2.73,0.15c-0.16,0.02-0.33,0.04-0.49,0.06
				c-0.15,0.02-0.31,0.04-0.46,0.07c-0.09,0.01-0.19,0.03-0.28,0.05c-0.23,0.04-0.46,0.09-0.69,0.14c-0.42,0.09-0.84,0.2-1.26,0.32
				c-0.16,0.05-0.32,0.1-0.48,0.15c-0.24,0.08-0.48,0.16-0.72,0.26c-0.24,0.09-0.48,0.19-0.72,0.29c-1.05,0.45-2.05,1.05-2.95,1.75
				c-0.54,0.42-1.04,0.87-1.5,1.36c-3.05,3.22-4.42,7.86-2.29,12.18c0.01,0.03,0.03,0.06,0.04,0.08c0.02,0.03,0.04,0.07,0.06,0.1
				c0,0,0,0,0,0c0.02,0.03,0.04,0.06,0.07,0.09c0.22,0.27,0.51,0.39,0.81,0.39c0.84,0,1.73-0.93,1.23-1.95
				c-1.47-2.97-0.48-6.55,1.64-8.94c0.21-0.23,0.42-0.45,0.65-0.66c0.51-0.48,1.08-0.89,1.67-1.26c2.13-1.3,4.72-1.9,7.16-2.05
				c0.45-0.03,0.9-0.04,1.35-0.04c1.79,0,3.56,0.2,5.32,0.49c0.18,0.03,0.35,0.06,0.53,0.09c0.13,0.02,0.26,0.04,0.39,0.07
				c0.33,0.06,0.65,0.12,0.98,0.18c0.11,0.02,0.22,0.04,0.32,0.06c0.33,0.06,0.65,0.13,0.98,0.2c0.22,0.04,0.43,0.09,0.65,0.13
				c0.22,0.04,0.43,0.09,0.65,0.14c0.22,0.04,0.43,0.09,0.65,0.14c3.79,0.8,7.6,1.43,11.46,1.73c0.26,0.02,0.52,0.04,0.78,0.06
				c0.52,0.04,1.04,0.07,1.56,0.09c1.3,0.06,2.6,0.1,3.9,0.1c0.51,0,1.03,0,1.54-0.01c0.34-0.01,0.68-0.01,1.02-0.03
				c0.17-0.01,0.34-0.01,0.51-0.02c0.34-0.01,0.68-0.03,1.02-0.05c0.34-0.02,0.68-0.04,1.03-0.06c0.51-0.03,1.02-0.07,1.53-0.11
				c0,0,0,0,0,0c0.51-0.04,1.02-0.09,1.53-0.14c1.02-0.1,2.04-0.22,3.05-0.36c0.34-0.05,0.68-0.09,1.01-0.15
				c1.05-0.16,2.09-0.33,3.13-0.53c0.3-0.06,0.6-0.12,0.9-0.18c1.85-0.37,3.69-0.81,5.51-1.3c1.95-0.53,3.89-1.14,5.8-1.82
				c2.78-0.99,5.63-2.18,7.76-4.28c2.08-2.05,3.63-5.61,1.87-8.33C147.66,134.46,147.56,134.32,147.46,134.2z M105.61,128.32
				c0.05-0.06,0.14-0.13,0.24-0.21c0.03-0.02,0.06-0.04,0.09-0.07c0.1-0.07,0.22-0.16,0.35-0.24c0.05-0.03,0.1-0.06,0.15-0.09
				c0.43-0.25,0.94-0.46,1.35-0.46c0.13,0,0.25,0.02,0.35,0.07c0.04,0.01,0.07,0.03,0.1,0.05c0.02,0.01,0.03,0.02,0.05,0.03
				c0.01,0.01,0.03,0.03,0.04,0.04c0.09,0.08,0.15,0.19,0.2,0.34c0.23,0.72-1.43,2.18-1.84,2.61c-0.94,0.99-2.08,1.57-3.29,1.98
				C103.79,130.83,104.67,129.31,105.61,128.32z"/>
			<path class="st0" d="M160.64,91.21c-0.03-0.03-0.06-0.06-0.1-0.09c-0.06-0.06-0.13-0.12-0.19-0.18
				c-0.06-0.06-0.13-0.11-0.19-0.17c-0.06-0.05-0.13-0.1-0.2-0.15c-0.06-0.05-0.13-0.09-0.2-0.14c-0.16-0.11-0.33-0.21-0.5-0.29
				c-0.07-0.03-0.13-0.06-0.2-0.09c-0.11-0.05-0.22-0.09-0.33-0.13c-0.06-0.02-0.12-0.04-0.18-0.06c-0.03-0.01-0.07-0.02-0.1-0.03
				c-0.07-0.02-0.14-0.03-0.2-0.05c-0.03-0.01-0.07-0.01-0.1-0.02c-0.07-0.01-0.14-0.02-0.2-0.03c-0.03,0-0.07-0.01-0.1-0.01
				c-0.07-0.01-0.14-0.01-0.2-0.01c-0.07,0-0.14,0-0.21,0c-1.04,0-2.08,0.38-3.04,0.98c-0.07,0.04-0.14,0.09-0.21,0.14
				c-0.04,0.02-0.07,0.05-0.1,0.07c-0.07,0.05-0.14,0.1-0.21,0.15c-0.07,0.05-0.14,0.1-0.2,0.15c-0.07,0.05-0.13,0.1-0.2,0.16
				c-0.05,0.04-0.11,0.09-0.16,0.13c-0.31,0.26-0.6,0.53-0.88,0.82c-0.06,0.06-0.12,0.12-0.18,0.19c-0.05,0.05-0.1,0.11-0.15,0.16
				c-0.07,0.07-0.13,0.15-0.19,0.22c-0.06,0.06-0.11,0.13-0.16,0.19c-0.05,0.06-0.1,0.13-0.16,0.19c-0.18,0.23-0.35,0.46-0.5,0.69
				c-1.23,1.81-2.34,3.83-3.63,5.68c-0.59,0.84-1.22,1.65-1.93,2.39c-1,1.05-2.15,1.95-3.52,2.6c-0.45,0.21-0.94,0.39-1.45,0.52
				c-0.19,0.05-0.38,0.09-0.57,0.12c-0.32,0.05-0.64,0.08-0.95,0.08c-0.17,0-0.34-0.01-0.51-0.03c-0.08-0.01-0.17-0.02-0.25-0.04
				c-0.22-0.04-0.43-0.09-0.63-0.17c-0.05-0.02-0.11-0.04-0.16-0.07c-0.31-0.14-0.59-0.33-0.83-0.58c-0.06-0.06-0.12-0.12-0.17-0.19
				c-0.24-0.3-0.44-0.67-0.58-1.13c-0.01-0.04-0.02-0.09-0.03-0.13c1.43-0.36,2.84-0.85,3.97-1.71c1.54-1.17,3.33-2.98,3.82-4.91
				c0.5-1.97-1.14-3.47-2.99-3.66c-0.16-0.02-0.33-0.03-0.49-0.03c-0.52,0-1.02,0.09-1.49,0.25c-0.05,0.02-0.1,0.04-0.16,0.06
				c-0.08,0.03-0.15,0.06-0.23,0.09c-0.07,0.03-0.15,0.07-0.22,0.1c-0.5,0.25-0.96,0.57-1.38,0.95c-0.08,0.08-0.17,0.15-0.25,0.23
				c-0.08,0.08-0.16,0.16-0.24,0.25c-0.08,0.09-0.15,0.17-0.23,0.26c-0.11,0.13-0.22,0.27-0.32,0.4c-0.8,1.08-1.51,2.43-1.97,3.84
				c-1.2,1.67-2.43,3.3-3.96,4.68c-0.05,0.05-0.18,0.15-0.37,0.29c-0.05,0.04-0.11,0.08-0.17,0.12c-0.71,0.5-1.89,1.24-2.51,1.24
				c-0.3,0-0.46-0.17-0.38-0.63c0.58-3.13,1.6-6.1,2.75-9.06c0.68-1.75,1.51-3.47,2.24-5.22c1.13-2.73,2.23-5.47,3.31-8.23
				c0.02-0.04,0.03-0.08,0.04-0.12c0-0.02,0.01-0.04,0.01-0.06c0.01-0.03,0.02-0.07,0.02-0.1c0-0.01,0-0.01,0-0.01
				c0-0.03,0.01-0.07,0.01-0.1c0.04-0.71-0.63-1.17-1.31-1.17c-0.28,0-0.57,0.08-0.8,0.25c-0.05,0.04-0.1,0.08-0.15,0.13
				c-0.12,0.12-0.22,0.27-0.29,0.45c-1.63,4.19-3.34,8.35-5.11,12.49c-0.43-0.38-0.91-0.65-1.41-0.82
				c-0.13-0.04-0.25-0.08-0.38-0.11c-0.06-0.02-0.13-0.03-0.19-0.04c-0.13-0.03-0.26-0.05-0.39-0.06c-0.2-0.02-0.4-0.03-0.6-0.03
				c-1,0-2.03,0.27-2.95,0.7c-3.04,1.43-4.65,4.27-6.42,6.91c-0.6,0.89-1.27,1.74-2.02,2.51c-0.04,0.04-0.07,0.08-0.12,0.12
				c-0.03,0.03-0.07,0.06-0.11,0.1c-0.04,0.03-0.07,0.07-0.11,0.1c-0.05,0.05-0.11,0.09-0.17,0.14c-0.09,0.07-0.18,0.14-0.28,0.22
				c-0.1,0.07-0.2,0.15-0.3,0.22c0,0,0,0,0,0c-0.07,0.05-0.14,0.1-0.21,0.14h0c-0.14,0.09-0.29,0.18-0.44,0.27
				c-0.24,0.13-0.47,0.25-0.69,0.33c-0.06,0.02-0.11,0.04-0.16,0.06c-0.16,0.05-0.31,0.07-0.44,0.07c-0.08,0-0.16-0.01-0.23-0.03
				c0,0,0,0,0,0c-0.02-0.01-0.05-0.02-0.07-0.03c-0.02-0.01-0.04-0.03-0.06-0.04h0c-0.01-0.01-0.03-0.02-0.04-0.04
				c-0.12-0.12-0.17-0.33-0.14-0.65c0-0.05,0.01-0.1,0.02-0.15c0-0.03,0.01-0.07,0.02-0.1c0.01-0.06,0.03-0.13,0.04-0.2
				c0.01-0.03,0.02-0.07,0.03-0.11c0.14-0.51,0.31-1.01,0.48-1.5c0.18-0.44,0.35-0.89,0.52-1.33c1-2.41,2.27-4.73,3.15-7.19
				c0.31-0.89-0.55-1.63-1.35-1.63c-0.24,0-0.48,0.07-0.68,0.23c-0.02,0.02-0.04,0.03-0.06,0.05c-0.09,0.09-0.17,0.2-0.24,0.33
				c-0.21,0.44-0.42,0.89-0.63,1.33c-0.24-0.23-0.5-0.42-0.77-0.58c-0.2-0.12-0.4-0.23-0.61-0.32c-0.63-0.27-1.3-0.39-1.97-0.39
				c-0.28,0-0.57,0.02-0.85,0.07c-0.11,0.02-0.23,0.04-0.34,0.06c-0.39,0.08-0.79,0.2-1.17,0.36c-0.11,0.04-0.21,0.09-0.32,0.14
				c-0.37,0.18-0.73,0.39-1.07,0.63c-0.15,0.1-0.29,0.21-0.42,0.33c-0.27,0.23-0.53,0.48-0.77,0.75c-1.78,2.02-3.2,5.37-2.85,8.26
				c0.01,0.12,0.03,0.23,0.05,0.35c0,0,0,0,0,0c0.02,0.13,0.05,0.26,0.08,0.39c0.03,0.13,0.07,0.26,0.1,0.38
				c0.08,0.25,0.17,0.5,0.28,0.73c0.05,0.1,0.1,0.2,0.15,0.3c0.03,0.05,0.06,0.1,0.08,0.14c0.08,0.14,0.17,0.27,0.27,0.39
				c0.06,0.08,0.13,0.16,0.2,0.24c0.03,0.04,0.07,0.07,0.1,0.11c0.07,0.07,0.14,0.14,0.22,0.21c0.77,0.68,1.75,1,2.76,1
				c0.14,0,0.28-0.01,0.43-0.02c0.14-0.01,0.29-0.03,0.43-0.06c0.07-0.01,0.14-0.03,0.21-0.04c0.12-0.03,0.25-0.06,0.37-0.09
				c0.3-0.08,0.6-0.19,0.89-0.33c0.2-0.09,0.4-0.2,0.59-0.32c0.13-0.08,0.25-0.16,0.38-0.25c0.13,0.18,0.3,0.34,0.5,0.48
				c0.49,0.35,0.99,0.58,1.48,0.7c0.15,0.04,0.3,0.06,0.44,0.08c0.15,0.02,0.3,0.03,0.44,0.03c0.77,0,1.53-0.23,2.26-0.62
				c0.07-0.04,0.15-0.08,0.22-0.12c0.36-0.21,0.72-0.46,1.07-0.73c0.07-0.06,0.14-0.11,0.2-0.17h0c0.07-0.06,0.14-0.12,0.2-0.18
				c0.07-0.06,0.14-0.12,0.2-0.18c0.07-0.06,0.13-0.12,0.2-0.19c0.03-0.03,0.07-0.06,0.1-0.1c0.03-0.03,0.07-0.06,0.1-0.1
				c0.36-0.36,0.7-0.74,1.03-1.13c0.09-0.11,0.18-0.21,0.26-0.32c0.23-0.29,0.45-0.58,0.67-0.87c-0.33,0.45,0.15,2.04,0.34,2.53
				c0.32,0.85,0.92,1.59,1.78,1.98c0.12,0.06,0.25,0.1,0.37,0.15c0.38,0.13,0.76,0.21,1.16,0.25c0.09,0.01,0.17,0.01,0.26,0.02
				c0.09,0,0.18,0.01,0.26,0.01c1.34,0,2.71-0.49,3.77-1.27c0.35,0.79,1.07,1.38,2.07,1.57c0.06,0.01,0.11,0.02,0.16,0.03
				c0.16,0.02,0.32,0.03,0.48,0.03h0.01c0.1,0,0.21,0,0.31-0.01c0,0,0.01,0,0.01,0c0.21-0.02,0.41-0.06,0.61-0.12
				c0.01,0,0.02-0.01,0.03-0.01c0.1-0.03,0.19-0.06,0.29-0.09c0.15-0.05,0.3-0.12,0.45-0.19c0.92-0.45,1.75-1.19,2.5-1.87
				c0.08-0.07,0.16-0.14,0.24-0.21c0.39-0.35,0.79-0.71,1.18-1.08c0,0.04,0,0.08,0,0.12c0-0.17,0.48-0.59,0.9-0.93
				c0,0,0,0.01-0.01,0.01c0.31,1.24,1.01,2.37,2.25,3.22c0.06,0.04,0.13,0.09,0.19,0.13c0.13,0.08,0.26,0.16,0.39,0.22c0,0,0,0,0,0
				c0.13,0.07,0.26,0.13,0.4,0.19c0.27,0.11,0.54,0.2,0.82,0.27c0.14,0.03,0.28,0.06,0.42,0.09c0.35,0.06,0.71,0.09,1.07,0.09
				c1.59,0,3.23-0.56,4.73-1.39c0.09-0.05,0.19-0.1,0.28-0.16c0.18-0.11,0.37-0.22,0.54-0.33c0.09-0.06,0.18-0.12,0.27-0.17
				c0.09-0.06,0.17-0.12,0.26-0.18c0.09-0.06,0.17-0.12,0.26-0.18h0c0.08-0.06,0.16-0.12,0.24-0.18c0.09-0.06,0.17-0.13,0.26-0.2
				c0.08-0.06,0.16-0.13,0.24-0.19c0.24-0.19,0.46-0.39,0.68-0.59c0.07-0.07,0.14-0.13,0.21-0.2c0.07-0.07,0.14-0.13,0.2-0.2
				c0.07-0.07,0.13-0.13,0.2-0.2c0.05-0.05,0.09-0.1,0.14-0.14c0.02-0.02,0.04-0.04,0.05-0.06c1.9-2.04,3.31-4.46,4.78-6.82
				c0.08-0.13,0.18-0.28,0.28-0.44c0.03-0.05,0.07-0.11,0.1-0.16c0.2-0.31,0.42-0.65,0.67-1c0.07-0.1,0.14-0.19,0.21-0.29
				c0,0,0,0,0,0c0.05-0.06,0.1-0.13,0.14-0.19c0,0,0,0,0,0c0.05-0.06,0.1-0.13,0.15-0.19c0.05-0.06,0.1-0.13,0.15-0.19v0
				c0.1-0.13,0.21-0.25,0.32-0.37c0.03-0.03,0.05-0.06,0.08-0.09c0.06-0.06,0.11-0.12,0.16-0.18c0,0,0,0,0,0
				c0.03-0.03,0.06-0.06,0.08-0.09c0.03-0.03,0.06-0.06,0.08-0.09c0.03-0.03,0.06-0.06,0.09-0.09c0.06-0.06,0.11-0.11,0.17-0.16
				c0.06-0.05,0.12-0.1,0.17-0.16c0.06-0.05,0.12-0.1,0.18-0.15c0.06-0.05,0.12-0.09,0.18-0.14c0.06-0.04,0.12-0.09,0.18-0.13
				c0.49-0.32,0.99-0.52,1.51-0.52c0.2,0,0.41,0.03,0.61,0.1c0.07,0.02,0.14,0.05,0.2,0.08c0.27,0.12,0.54,0.32,0.81,0.59
				c0.1,0.1,0.2,0.18,0.31,0.24c0.03,0.02,0.07,0.04,0.11,0.05c0.14,0.06,0.29,0.09,0.44,0.09c0.15,0,0.3-0.03,0.44-0.09
				c0.04-0.01,0.08-0.03,0.12-0.05c0.02-0.01,0.04-0.02,0.06-0.03c0.04-0.02,0.07-0.04,0.11-0.07c0.05-0.04,0.1-0.08,0.15-0.12
				c0.03-0.03,0.06-0.06,0.09-0.09C161.07,92.49,161.2,91.77,160.64,91.21z M138.23,96.29c0.1-0.1,0.3-0.26,0.55-0.42
				c0.04-0.03,0.09-0.06,0.14-0.09c0.07-0.04,0.15-0.09,0.23-0.13c0.05-0.03,0.11-0.06,0.16-0.08c0.03-0.01,0.06-0.03,0.08-0.04
				c0.06-0.03,0.11-0.05,0.17-0.07c0.31-0.13,0.62-0.22,0.9-0.22c0.04,0,0.09,0,0.13,0.01c0.04,0,0.08,0.01,0.12,0.02
				c0.08,0.02,0.15,0.05,0.21,0.09c0.03,0.02,0.06,0.04,0.09,0.07c0.01,0.01,0.03,0.03,0.04,0.04c0.04,0.04,0.07,0.1,0.11,0.16
				c0.02,0.04,0.04,0.09,0.05,0.13c0.23,0.72-1.46,2.18-1.88,2.61c-0.96,0.99-2.12,1.57-3.36,1.97
				C136.37,98.8,137.26,97.28,138.23,96.29z M108.05,100.13c-0.04,0.09-0.08,0.19-0.12,0.29c-0.14,0.33-0.29,0.7-0.46,1.09
				c-0.02,0.05-0.05,0.1-0.07,0.16c-0.13,0.28-0.27,0.57-0.42,0.84c-0.03,0.05-0.06,0.11-0.09,0.16c-0.07,0.13-0.14,0.25-0.22,0.38
				c-0.08,0.12-0.15,0.24-0.24,0.36c-0.02,0.03-0.04,0.06-0.06,0.09c-0.04,0.06-0.08,0.11-0.13,0.17c-0.15,0.2-0.31,0.38-0.47,0.54
				c-0.05,0.05-0.1,0.09-0.15,0.14c-0.49,0.44-1.06,0.72-1.72,0.72c-0.23,0-0.47-0.03-0.72-0.11c-0.03-0.01-0.06-0.01-0.1-0.03
				c-2.58-0.83-0.77-5.62,0.06-7.04c0.17-0.3,0.38-0.6,0.61-0.89c0.1-0.12,0.21-0.25,0.32-0.36c0.3-0.31,0.63-0.61,0.98-0.85
				c0.13-0.09,0.27-0.17,0.41-0.25c0.05-0.03,0.09-0.05,0.14-0.07c0.1-0.05,0.19-0.09,0.29-0.13c0.39-0.16,0.8-0.25,1.23-0.25
				c0.06,0,0.11,0,0.17,0C109.93,95.23,108.62,98.74,108.05,100.13z M124.75,100.39c-0.04,0.1-0.07,0.2-0.11,0.3
				c-0.16,0.43-0.35,0.92-0.57,1.43c-0.03,0.07-0.06,0.13-0.09,0.2c-0.06,0.13-0.12,0.27-0.19,0.4c-0.03,0.07-0.06,0.13-0.1,0.2
				c-0.17,0.33-0.35,0.66-0.56,0.95c-0.04,0.06-0.08,0.12-0.12,0.17c-0.61,0.84-1.37,1.45-2.35,1.45c-0.21,0-0.44-0.03-0.67-0.09
				c-0.03-0.01-0.06-0.02-0.1-0.03c-2.6-0.78-0.89-5.7-0.09-7.16c0.12-0.22,0.26-0.44,0.41-0.66c0.06-0.09,0.13-0.17,0.19-0.26
				c0.83-1.08,2.05-2.01,3.39-2.01c0.03,0,0.07,0,0.1,0C126.52,95.38,125.29,98.97,124.75,100.39z"/>
		</g>
	</g>
</g>
</svg>
