<?xml version="1.0" encoding="utf-8"?>
<!-- Generator: Adobe Illustrator 24.2.3, SVG Export Plug-In . SVG Version: 6.00 Build 0)  -->
<svg version="1.1" id="Layer_1" xmlns="http://www.w3.org/2000/svg" xmlns:xlink="http://www.w3.org/1999/xlink" x="0px" y="0px"
	 viewBox="0 0 497 115" style="enable-background:new 0 0 497 115;" xml:space="preserve">
<style type="text/css">
	.st0{fill:#FFFFFF;}
</style>
<g>
	<path class="st0" d="M306.33-95.22c-0.25-0.82-0.77-1.46-1.56-1.93c-0.8-0.4-1.61-0.47-2.43-0.23c-0.82,0.25-1.45,0.77-1.9,1.56
		c-0.66,1.24-1.65,2.81-2.97,4.69c-1.32,1.89-2.89,3.78-4.69,5.68c-1.81,1.9-3.76,3.5-5.85,4.82c-2.1,1.31-4.25,1.97-6.45,1.97
		c-2.06,0-3.56-0.61-4.5-1.83c-0.49-0.66-0.87-1.46-1.12-2.43c4.01-0.8,7.8-2.92,11.39-6.36c1.64-1.57,3.13-3.46,4.46-5.66
		c1.34-2.2,2-4.39,2-6.57c0-1.29-0.22-2.34-0.67-3.15c-0.45-0.81-0.93-1.42-1.44-1.85c-1.38-1.22-3.22-1.83-5.52-1.83
		c-4.71,0-8.87,2.62-12.48,7.88c-0.85,1.37-1.56,2.74-2.17,4.1c-0.08,0.08-0.15,0.16-0.22,0.25c-1.12,1.57-2.2,3.08-3.23,4.54
		c-1.5,2.16-2.98,4.22-4.43,6.19c-1.45,1.97-2.81,3.59-4.08,4.87c-1.27,1.28-2.34,1.92-3.23,1.92c-0.07,0-0.12,0-0.14,0
		c-0.19-0.56-0.19-1.5,0-2.81c0.19-1.31,0.53-2.64,1.02-3.97v-0.04l0.39-1.12c0.4-0.91,0.61-1.42,0.63-1.51
		c0.14-0.33,0.4-1.17,0.77-2.53l14.31-40.82c0.28-0.87,0.23-1.69-0.14-2.46c-0.38-0.77-0.98-1.32-1.83-1.65
		c-0.87-0.28-1.69-0.23-2.46,0.14c-0.77,0.38-1.31,0.98-1.62,1.83l-9.91,28.3c-0.68-0.8-1.64-1.5-2.88-2.11
		c-1.24-0.61-2.84-0.91-4.78-0.91c-4.97,0-9.32,2.95-13.04,8.86c-0.52,0.92-0.98,1.83-1.41,2.75c-0.17,0.15-0.34,0.32-0.49,0.52
		c-1.1,1.57-2.17,3.08-3.2,4.54c-1.5,2.16-2.98,4.22-4.45,6.19c-1.46,1.97-2.83,3.59-4.1,4.87c-1.27,1.28-2.34,1.92-3.23,1.92
		c-0.05,0-0.08,0-0.11,0c-0.21-0.56-0.22-1.5-0.02-2.81c0.2-1.31,0.53-2.64,1-3.97c0.02,0,0.04-0.01,0.04-0.04l6.5-18.56
		c0.28-0.87,0.23-1.69-0.14-2.46c-0.38-0.77-0.98-1.32-1.83-1.65c-0.87-0.28-1.69-0.23-2.46,0.14c-0.77,0.38-1.32,0.98-1.65,1.83
		l-0.39,1.16c-0.66-0.84-1.62-1.6-2.9-2.29c-1.28-0.68-2.95-1.02-5.01-1.02c-4.97,0-9.32,2.95-13.04,8.86
		c-0.68,1.2-1.27,2.39-1.79,3.58l-0.95,1.34c-3.42,4.92-6.47,8.91-9.14,11.95c-2.13,2.25-3.64,3.5-4.54,3.76
		c0.21-1.08,0.59-2.41,1.14-4.01c0.55-1.59,1.1-3.08,1.63-4.46c1.48-3.66,2.58-7.07,3.32-10.25c0.74-3.18,0.44-5.83-0.9-7.96
		c-0.45-0.68-1.15-1.32-2.11-1.93c-0.96-0.61-2.3-0.91-4.01-0.91c-3.16,0-6.48,2.24-9.95,6.71c-0.28-1.64-0.7-2.85-1.27-3.62
		c-1.38-2.06-3.34-3.09-5.87-3.09c-2.58,0-5.23,1.28-7.95,3.83c0.12-0.8-0.01-1.52-0.39-2.18c-0.38-0.66-0.95-1.12-1.72-1.41
		c-0.87-0.28-1.68-0.23-2.44,0.14c-0.76,0.38-1.31,0.98-1.63,1.83l-10.37,29.67c-0.28,0.87-0.23,1.69,0.14,2.46
		c0.38,0.77,0.98,1.31,1.83,1.62c0.35,0.12,0.7,0.18,1.05,0.18h0.04h0.04h0.04c1.27,0,2.26-0.67,2.99-2
		c0.05-0.19,0.7-1.72,1.95-4.59c1.25-2.87,2.9-6.17,4.94-9.9c1.73-3.12,3.28-5.58,4.64-7.38c1.36-1.8,2.51-3.12,3.46-3.96
		c0.95-0.83,1.71-1.35,2.27-1.56s0.94-0.32,1.12-0.32c0.26,0,0.4,0.01,0.42,0.04c0.19,0.47,0.31,0.98,0.37,1.53
		c0.06,0.55,0.04,1.31-0.05,2.29c-0.09,0.97-0.3,2.2-0.63,3.69c-0.33,1.49-0.83,3.29-1.51,5.4c-1.12,3.26-2.2,6.06-3.22,8.42
		s-1.58,3.62-1.67,3.78c-0.35,0.82-0.39,1.63-0.11,2.44s0.83,1.42,1.65,1.85c0.47,0.21,0.96,0.3,1.48,0.28h0.04h0.04
		c1.29,0,2.29-0.67,2.99-2c0.05-0.19,0.7-1.73,1.95-4.62c1.25-2.89,2.88-6.22,4.87-9.97c1.15-2.16,2.21-3.98,3.18-5.48
		c0.97-1.5,1.85-2.73,2.62-3.69c0.77-0.96,1.45-1.71,2.02-2.25c0.57-0.54,1.05-0.93,1.44-1.18s0.68-0.39,0.88-0.44
		c0.2-0.05,0.31-0.07,0.33-0.07c0.47,0,0.75,0.04,0.84,0.11c0.07,0.07,0.11,0.4,0.12,1c0.01,0.6-0.15,1.58-0.47,2.94
		c-0.7,2.58-1.64,5.34-2.81,8.3c-1.34,3.33-2.3,6.28-2.9,8.84s-0.37,4.68,0.69,6.35c0.28,0.45,0.78,0.92,1.49,1.42
		c0.71,0.5,1.73,0.76,3.04,0.76c2.18,0,4.29-0.8,6.33-2.39c2.04-1.59,4.15-3.78,6.35-6.57c0.11-0.14,0.22-0.28,0.33-0.42
		c0.24,2.1,0.83,3.91,1.77,5.41c1.76,2.62,4.16,3.94,7.21,3.94c3.28,0,6.39-1.34,9.32-4.01c0.19,0.49,0.43,0.96,0.74,1.41
		c1.29,1.73,3.06,2.6,5.31,2.6c2.02,0,3.91-0.67,5.7-2.02c1.78-1.35,3.59-3.19,5.41-5.54c0.46-0.59,0.94-1.21,1.42-1.85
		c0.24,2.15,0.83,3.98,1.78,5.51c1.76,2.62,4.16,3.94,7.21,3.94c3.19,0,6.2-1.27,9.04-3.8c0.19,0.42,0.41,0.82,0.67,1.2
		c1.29,1.73,3.07,2.6,5.34,2.6c1.99,0,3.88-0.67,5.66-2.02c1.78-1.35,3.59-3.19,5.43-5.54c0.67-0.86,1.37-1.78,2.08-2.73
		c0.41,2.26,1.24,4.24,2.51,5.93c0.75,1.03,1.89,2,3.43,2.92c1.53,0.91,3.58,1.37,6.13,1.37c2.88,0,5.6-0.67,8.14-2
		c2.54-1.34,4.86-2.99,6.96-4.96c2.1-1.97,3.91-3.96,5.45-5.96c1.53-2,2.74-3.72,3.6-5.15c0.87-1.43,1.36-2.25,1.48-2.46
		C306.5-93.59,306.58-94.4,306.33-95.22z M215.47-95.54c-0.3,2.16-0.72,3.9-1.23,5.24c-0.28,0.8-0.75,1.83-1.41,3.09
		c-0.66,1.27-1.47,2.55-2.44,3.87c-0.97,1.31-2.06,2.43-3.25,3.34s-2.47,1.37-3.83,1.37c-0.84,0-1.44-0.32-1.79-0.95
		c-0.61-1.03-0.91-2.48-0.91-4.36c0-2.85,0.64-5.79,1.91-8.83c0.08-0.16,0.15-0.32,0.2-0.48c0.42-0.96,0.89-1.92,1.44-2.9
		c0.44-0.75,1.03-1.56,1.76-2.44c0.73-0.88,1.58-1.65,2.55-2.3c0.97-0.66,2.06-0.98,3.25-0.98c0.77,0,1.37,0.07,1.79,0.21
		s0.73,0.3,0.93,0.49c0.2,0.19,0.32,0.34,0.37,0.46C215.55-99.41,215.78-97.69,215.47-95.54z M251.75-92.41l-1.27,3.62
		c-0.56,1.29-1.35,2.72-2.37,4.29c-1.02,1.57-2.2,2.95-3.55,4.13c-1.35,1.18-2.81,1.78-4.38,1.78c-0.84,0-1.44-0.32-1.79-0.95
		c-0.61-1.03-0.91-2.48-0.91-4.36c0-3.89,1.18-7.96,3.55-12.2c0.44-0.75,1.03-1.56,1.76-2.44c0.73-0.88,1.58-1.65,2.55-2.3
		c0.97-0.66,2.06-0.98,3.25-0.98c0.77,0,1.37,0.07,1.79,0.21s0.73,0.3,0.91,0.49c0.19,0.19,0.32,0.34,0.39,0.46
		c0.59,0.94,0.84,2.19,0.76,3.76C252.36-95.34,252.13-93.84,251.75-92.41z M280.69-100.09c1.38-1.21,2.85-1.81,4.39-1.81
		c0.73,0,1.12,0.06,1.2,0.18c0.09,0.26,0.01,0.79-0.25,1.6c-0.26,0.81-0.79,1.82-1.58,3.04c-1.1,1.62-2.49,3.12-4.17,4.52
		c-1.68,1.39-3.46,2.41-5.36,3.04c0.44-2.09,1.17-4.07,2.18-5.94C278.11-97.34,279.3-98.88,280.69-100.09z"/>
	<path class="st0" d="M95.51-55.13c-7.23-0.35-14.56-0.71-21.9-1.09c-1.34-0.07-2.68-0.14-4.02-0.22
		c-8.43-0.46-17.14-0.94-25.7-0.16c-17.77,1.62-31.49,8.94-37.65,20.1c-0.54,0.98-0.54,2.01,0.01,2.92c0.66,1.09,2,1.81,3.35,1.81
		c0.02,0,0.05,0,0.07,0c1.21-0.02,2.24-0.64,2.82-1.69c6.5-11.77,21.39-17.54,44.38-17.1c12,0.22,24.2,0.89,36.05,1.57
		C93.76-50.97,94.63-53.05,95.51-55.13z"/>
	<path class="st0" d="M131.4-106.34c-0.13-0.49-0.37-0.93-0.74-1.32c-1.31-1.33-3.68-0.95-5.08,0.29c-1.4,1.24-2.09,3.08-2.76,4.82
		c-2.44,6.27-5.42,12.32-8.9,18.07c-1.65,2.73-3.9,5.68-7.08,5.8c-0.54,0.02-1.12-0.06-1.52-0.43c-0.6-0.54-0.58-1.48-0.49-2.29
		c0.72-6.68,2.62-13.24,5.59-19.27c1.15-2.35,2.24-5.7,0.04-7.13c-1.32-0.86-3.18-0.31-4.28,0.81c-1.1,1.12-1.63,2.67-2.13,4.16
		c-0.7,2.12-1.41,4.23-2.11,6.35c-0.12,0.12-0.23,0.24-0.34,0.38c-1.12,1.57-2.2,3.08-3.23,4.54c-1.5,2.16-2.98,4.22-4.43,6.19
		c-1.45,1.97-2.81,3.59-4.08,4.87c-1.27,1.28-2.34,1.92-3.23,1.92c-0.07,0-0.12,0-0.14,0c-0.19-0.56-0.19-1.5,0-2.81
		c0.19-1.31,0.53-2.64,1.02-3.97v-0.04l0.39-1.12c0.4-0.91,0.61-1.42,0.63-1.51c0.14-0.33,0.4-1.17,0.77-2.53l14.31-40.82
		c0.28-0.87,0.23-1.69-0.14-2.46c-0.38-0.77-0.98-1.32-1.83-1.65c-0.87-0.28-1.69-0.23-2.46,0.14c-0.77,0.38-1.31,0.98-1.62,1.83
		l-9.91,28.3c-0.68-0.8-1.64-1.5-2.88-2.11c-1.24-0.61-2.84-0.91-4.78-0.91c-4.97,0-9.32,2.95-13.04,8.86
		c-0.52,0.92-0.98,1.83-1.41,2.75c-0.17,0.15-0.34,0.32-0.49,0.52c-1.1,1.57-2.17,3.08-3.2,4.54c-1.5,2.16-2.98,4.22-4.45,6.19
		c-1.46,1.97-2.83,3.59-4.1,4.87c-1.27,1.28-2.34,1.92-3.23,1.92c-0.05,0-0.08,0-0.11,0c-0.21-0.56-0.22-1.5-0.02-2.81
		c0.2-1.31,0.53-2.64,1-3.97c0.02,0,0.04-0.01,0.04-0.04l6.5-18.56c0.28-0.87,0.23-1.69-0.14-2.46c-0.38-0.77-0.98-1.32-1.83-1.65
		c-0.87-0.28-1.69-0.23-2.46,0.14c-0.77,0.38-1.32,0.98-1.65,1.83L51-104.99c-0.66-0.84-1.62-1.6-2.9-2.29
		c-1.28-0.68-2.95-1.02-5.01-1.02c-4.97,0-9.32,2.95-13.04,8.86c-0.57,1.01-1.07,2.01-1.53,3.01c-0.1,0.11-0.21,0.21-0.3,0.33
		c-1.12,1.57-2.19,3.08-3.2,4.54c-1.5,2.16-2.98,4.22-4.45,6.19c-1.46,1.97-2.83,3.59-4.1,4.87c-1.27,1.28-2.34,1.92-3.23,1.92
		c-0.05,0-0.09,0-0.14,0c-0.19-0.56-0.18-1.5,0.02-2.81c0.2-1.31,0.53-2.64,1-3.97c0-0.02,0.01-0.04,0.04-0.04l16.07-45.98
		c0.28-0.87,0.24-1.69-0.12-2.46c-0.36-0.77-0.98-1.32-1.85-1.65c-0.87-0.28-1.68-0.23-2.44,0.14c-0.76,0.38-1.31,0.98-1.63,1.83
		L8.11-87.55c-0.07,0.16-0.23,0.65-0.47,1.44c-0.25,0.8-0.49,1.76-0.72,2.88c-0.7,3.68-0.37,6.49,0.98,8.44
		c1.31,1.73,3.09,2.6,5.34,2.6c2.02,0,3.91-0.67,5.7-2.02c1.78-1.35,3.59-3.19,5.41-5.54c0.45-0.57,0.9-1.17,1.37-1.79
		c0.25,2.09,0.83,3.88,1.76,5.37c1.76,2.62,4.16,3.94,7.21,3.94c3.28,0,6.39-1.34,9.32-4.01c0.19,0.49,0.43,0.96,0.74,1.41
		c1.29,1.73,3.06,2.6,5.31,2.6c2.02,0,3.91-0.67,5.7-2.02c1.78-1.35,3.59-3.19,5.41-5.54c0.46-0.59,0.94-1.21,1.42-1.85
		c0.24,2.15,0.83,3.98,1.78,5.51c1.76,2.62,4.16,3.94,7.21,3.94c3.19,0,6.2-1.27,9.04-3.8c0.19,0.42,0.41,0.82,0.67,1.2
		c1.29,1.73,3.07,2.6,5.34,2.6c1.99,0,3.88-0.67,5.66-2.02c1.78-1.35,3.59-3.19,5.43-5.54c0.23-0.29,0.47-0.61,0.7-0.91
		c0.08,0.75,0.21,1.49,0.42,2.23c1.31,4.5,6.72,8.07,10.77,5.71c-3.24,6.83-12.48,29.66-15.72,36.49c-1.12,2.36-2.97,7.78,1.69,7.45
		c2.54-0.18,3.95-3.5,4.95-5.45c2.88-5.61,11.69-27.25,14.44-32.92c5.49-11.35,10.69-22.83,15.62-34.44
		C131.21-103.08,131.78-104.89,131.4-106.34z M46.85-95.54c-0.3,2.16-0.72,3.9-1.23,5.24c-0.28,0.8-0.75,1.83-1.41,3.09
		c-0.66,1.27-1.47,2.55-2.44,3.87c-0.97,1.31-2.06,2.43-3.25,3.34s-2.47,1.37-3.83,1.37c-0.84,0-1.44-0.32-1.79-0.95
		c-0.61-1.03-0.91-2.48-0.91-4.36c0-3.89,1.18-7.96,3.55-12.2c0.44-0.75,1.03-1.56,1.76-2.44c0.73-0.88,1.58-1.65,2.55-2.3
		c0.97-0.66,2.06-0.98,3.25-0.98c0.77,0,1.37,0.07,1.79,0.21s0.73,0.3,0.93,0.49c0.2,0.19,0.32,0.34,0.37,0.46
		C46.93-99.41,47.15-97.69,46.85-95.54z M83.13-92.41l-1.27,3.62c-0.56,1.29-1.35,2.72-2.37,4.29c-1.02,1.57-2.2,2.95-3.55,4.13
		c-1.35,1.18-2.81,1.78-4.38,1.78c-0.84,0-1.44-0.32-1.79-0.95c-0.61-1.03-0.91-2.48-0.91-4.36c0-3.89,1.18-7.96,3.55-12.2
		c0.44-0.75,1.03-1.56,1.76-2.44c0.73-0.88,1.58-1.65,2.55-2.3c0.97-0.66,2.06-0.98,3.25-0.98c0.77,0,1.37,0.07,1.79,0.21
		s0.73,0.3,0.91,0.49c0.19,0.19,0.32,0.34,0.39,0.46c0.59,0.94,0.84,2.19,0.76,3.76C83.73-95.34,83.5-93.84,83.13-92.41z"/>
	<g>
		<path class="st0" d="M468.61-74.75l0.18-0.03c0-0.01,0-0.02,0.01-0.03C468.74-74.79,468.67-74.77,468.61-74.75z"/>
		<path class="st0" d="M491.91-82.29c-0.77-5.29-4.61-11.32-11.47-12.88c-4.02-0.91-8.45-0.26-11.92,2.02
			c-0.48,0.31-0.98,0.69-1.47,1.12c-0.48-1.18-0.96-2.31-1.36-3.36c-0.94-2.48-1.68-4.89-2.22-7.22c-0.54-2.34-0.42-4.37,0.35-6.1
			c0.38-0.78,0.45-1.56,0.23-2.34c-0.22-0.79-0.71-1.4-1.46-1.85c-0.75-0.42-1.52-0.55-2.3-0.38c-0.79,0.16-1.44,0.59-1.95,1.3
			c-5.55,7.72-10.47,16.13-16.68,23.36c-0.96,1.12-1.96,2.2-3.02,3.23c-0.37,0.36-2.63,1.9-2.66,2.3c0.03-0.46,0.04-0.96,0.04-1.47
			c0-1.71-0.26-3.47-0.78-5.28c-0.51-1.8-1.12-3.65-1.82-5.55c-0.94-2.48-1.68-4.89-2.22-7.22c-0.54-2.34-0.42-4.37,0.35-6.1
			c0.38-0.78,0.45-1.56,0.23-2.34c-0.22-0.79-0.71-1.4-1.46-1.85c-0.75-0.42-1.51-0.55-2.3-0.38c-0.79,0.16-1.44,0.59-1.95,1.3
			c-1.44,2.06-2.88,4.11-4.32,6.17c-3.43,4.9-6.76,9.81-10.18,14.69c-1.32,1.89-2.89,3.78-4.69,5.68c-1.81,1.9-3.76,3.5-5.85,4.82
			c-2.1,1.31-4.25,1.97-6.45,1.97c-2.06,0-3.56-0.61-4.5-1.83c-0.49-0.66-0.87-1.46-1.12-2.43c4.01-0.8,7.8-2.92,11.39-6.36
			c1.64-1.57,3.13-3.46,4.46-5.66c1.34-2.2,2-4.39,2-6.57c0-1.29-0.22-2.34-0.67-3.15c-0.45-0.81-0.93-1.42-1.44-1.85
			c-1.38-1.22-3.22-1.83-5.52-1.83c-4.71,0-8.87,2.62-12.48,7.88c-0.91,1.48-1.67,2.96-2.31,4.44l-1.1,1.51
			c-3.42,4.92-6.46,8.91-9.11,11.95c-1.92,2.04-3.34,3.25-4.25,3.62c0.3-1.08,0.76-2.35,1.35-3.81c0.6-1.46,1.18-2.83,1.74-4.1
			c1.71-3.68,3.02-7.13,3.94-10.35c0.91-3.22,0.73-5.94-0.56-8.14c-0.42-0.73-1.13-1.41-2.13-2.04c-1-0.63-2.4-0.95-4.2-0.95h-3.94
			c-1.12,0-2.04,0.53-2.74,1.58c-0.05,0.07-0.46,0.75-1.25,2.04c-0.79,1.29-1.76,2.82-2.92,4.59c-1.16,1.77-2.33,3.43-3.5,4.97
			c-0.08,0.12-0.14,0.24-0.21,0.36c-2.06,2.94-3.96,5.43-5.68,7.41c-1.86,2.16-3.9,3.76-6.1,4.82c2.46-4.8,3.69-9.49,3.69-14.06
			c0-3.16-0.63-5.75-1.9-7.77c-1.76-2.65-4.16-3.97-7.21-3.97c-2.2,0-4.34,0.61-6.4,1.83c-0.38-0.7-0.96-1.2-1.76-1.48
			c-0.87-0.28-1.69-0.24-2.46,0.12c-0.77,0.36-1.32,0.98-1.65,1.85L307.1-48.24l0,0l-2.12,6.45l0,0l-2.89,8.8
			c-0.26,0.87-0.21,1.69,0.16,2.46c0.36,0.77,0.97,1.32,1.81,1.65c0.38,0.12,0.74,0.18,1.09,0.18c1.31,0,2.32-0.72,3.02-2.14
			l4.05-12.89l1.39-4.41l0,0l8.55-27.24c0.68,0.82,1.64,1.54,2.88,2.16c1.24,0.62,2.87,0.93,4.89,0.93c2.51,0,4.9-0.79,7.17-2.36
			c5.44-0.14,10.04-1.76,13.82-4.85c1.83-1.5,3.56-3.27,5.19-5.31c1.63-2.04,3.36-4.36,5.19-6.96l0.49-0.7
			c0.07-0.11,0.12-0.22,0.18-0.33c0.96-1.35,1.92-2.72,2.86-4.17c1.3-1.99,2.35-3.63,3.15-4.92h2.11c0.56,0,0.89,0.04,0.98,0.11
			c0.05,0.12,0.06,0.49,0.04,1.11c-0.02,0.62-0.23,1.6-0.63,2.94c-0.87,2.6-1.97,5.38-3.3,8.33c-1.55,3.38-2.68,6.31-3.39,8.79
			c-0.72,2.48-0.57,4.55,0.44,6.19c0.26,0.47,0.74,0.96,1.46,1.48c0.71,0.52,1.74,0.77,3.08,0.77c2.16,0,4.26-0.8,6.31-2.39
			c2.05-1.59,4.17-3.78,6.36-6.57c0.35-0.45,0.72-0.92,1.08-1.39c0.4,2.29,1.24,4.3,2.52,6c0.75,1.03,1.89,2,3.43,2.92
			c1.53,0.91,3.58,1.37,6.13,1.37c2.88,0,5.6-0.67,8.14-2c2.54-1.34,4.86-2.99,6.96-4.96c2.1-1.97,3.91-3.96,5.45-5.96
			c3.58-4.68,6.8-9.68,10.18-14.5c0.6,2.23,1.3,4.38,2.07,6.47c0.59,1.64,1.11,3.2,1.56,4.68c0.46,1.47,0.69,2.8,0.69,3.97
			c0,2.15-0.55,3.75-1.65,4.78c-0.64,0.54-1.29,0.89-1.97,1.05c-0.68,0.17-1.22,0.25-1.62,0.25c-1.1,0-2-0.2-2.71-0.61
			c-0.7-0.41-1.05-0.77-1.05-1.08c0-0.86-0.31-1.61-0.93-2.25c-0.62-0.63-1.38-0.95-2.27-0.95s-1.65,0.32-2.27,0.95
			c-0.62,0.64-0.93,1.39-0.93,2.25c0,2.28,0.98,4.19,2.94,5.75c1.95,1.56,4.36,2.34,7.22,2.34c2.84,0,5.35-0.87,7.52-2.6
			c3.92-0.52,7.54-2.43,10.87-5.73c1.99-1.97,3.83-4.07,5.58-6.26c2.08-2.59,3.92-5.46,5.83-8.19c0.73-1.04,1.46-2.09,2.19-3.14
			c0.15-0.21,1.25-1.44,1.18-1.69c0.61,2.23,1.3,4.38,2.08,6.47c0.58,1.64,1.11,3.2,1.56,4.68c0.46,1.47,0.69,2.8,0.69,3.97
			c0,2.15-0.55,3.75-1.65,4.78c-0.64,0.54-1.29,0.89-1.97,1.05c-0.68,0.17-1.22,0.25-1.62,0.25c-1.1,0-2-0.2-2.71-0.61
			c-0.7-0.41-1.05-0.77-1.05-1.08c0-0.86-0.31-1.61-0.93-2.25c-0.62-0.63-1.38-0.95-2.27-0.95s-1.65,0.32-2.27,0.95
			c-0.62,0.64-0.93,1.39-0.93,2.25c0,2.28,0.98,4.19,2.94,5.75c5.04,4.01,13.71,2.9,17.95-1.82c2.27-2.53,2.54-5.57,1.97-8.68
			c0.14-0.13,0.27-0.27,0.39-0.4c2.28-2.44,4.73-4.22,8.26-3.71c4.22,0.61,6.31,4.41,6.81,7.47c1.12,6.84-4.36,13.02-9.86,16.53
			c-6.44,4.1-14.27,5.95-22.4,7.64c-8.73,1.81-17.94,3.36-27.37,4.61c-35.98,4.78-71.87,5.1-105.31,4.72l-2.02,6.44
			c10.86,0.1,21.71,0.12,32.51,0c37.12-0.4,76.4-2.07,112.18-11.48C477.47-57.03,494.13-67.03,491.91-82.29z M391.21-95.46
			c1.01-1.88,2.2-3.42,3.59-4.62c1.38-1.21,2.85-1.81,4.39-1.81c0.73,0,1.12,0.06,1.2,0.18c0.09,0.26,0.01,0.79-0.25,1.6
			c-0.26,0.81-0.79,1.82-1.58,3.04c-1.1,1.62-2.49,3.12-4.17,4.52c-1.68,1.39-3.46,2.41-5.36,3.04
			C389.47-91.61,390.2-93.59,391.21-95.46z M337.45-84.43c-0.73,1.31-1.84,2.65-3.34,4.01c-0.07,0.07-0.14,0.13-0.21,0.18
			c-1.15,1.03-2.47,1.55-3.97,1.55c-0.77,0-1.37-0.08-1.79-0.23c-0.42-0.15-0.73-0.32-0.93-0.49c-0.2-0.18-0.33-0.32-0.4-0.44
			c-0.73-1.29-0.94-3.01-0.63-5.17c0.3-2.16,0.7-3.9,1.2-5.24c0.42-1.17,1.15-2.67,2.18-4.48c1.03-1.82,2.3-3.47,3.81-4.96
			c1.51-1.49,3.17-2.23,4.97-2.23c0.84,0,1.43,0.32,1.76,0.95c0.61,1.03,0.91,2.48,0.91,4.36C341-92.73,339.82-88.67,337.45-84.43z"
			/>
		<path class="st0" d="M114.21-50.42c-0.35,0.83-0.71,1.67-1.06,2.5c0.7,0.03,1.41,0.07,2.11,0.1c38.99,1.76,78.53,3.21,117.54,4.3
			l8.66,0.24c18.83,0.53,38.01,1.06,57.25,1.39l2.12-6.45c-57.14-0.88-117.96-2.81-185-5.85C115.29-52.96,114.75-51.7,114.21-50.42z
			"/>
	</g>
</g>
</svg>
