<?xml version="1.0" encoding="utf-8"?>
<!-- Generator: Adobe Illustrator 24.2.3, SVG Export Plug-In . SVG Version: 6.00 Build 0)  -->
<svg version="1.1" id="Layer_1" xmlns="http://www.w3.org/2000/svg" xmlns:xlink="http://www.w3.org/1999/xlink" x="0px" y="0px"
	 viewBox="0 0 576 576" style="enable-background:new 0 0 576 576;" xml:space="preserve">
<style type="text/css">
	.st0{fill:#F0ADAD;}
</style>
<g>
	<path class="st0" d="M254.51,97.26l-11.97,54.36h-97.7v111.46c-1.24-2.66-2.5-5.29-3.74-7.95c-3.21-6.9-6.26-13.91-9.75-20.66
		c-2.48-4.78-8.65-7.19-13.66-4.87c-3.55,1.62-7.07,3.26-10.63,4.83c-5.96,2.65-7.7,9.73-5.51,14.84
		c2.38,5.42,5.19,10.67,7.52,16.11c4.42,10.29,10.62,19.8,13.47,30.77c0.53,2.1,1.68,4.01,2.61,5.98
		c3.43,7.29,6.88,14.53,10.27,21.81c3.16,6.75,6.26,13.54,9.42,20.29v93.51h48.74c0.49,1.09,0.97,2.21,1.44,3.32
		c0.39,0.95,0.81,1.68,1.32,2.15c0.87,0.92,1.99,1.19,3.63,1.03c2.88,3.9,3.59,8.81,7.44,12.33c2.8,2.56,4.51,6.39,8.09,8.32
		c1.4,0.77,2.95,1.54,4.5,1.7c1.87,0.18,3.2-1.64,3.86-4.05c1.24-4.54,0.38-8.87-0.94-13.21c-0.43-1.55-0.05-3.38-0.63-4.86
		c-0.17-0.42-0.33-0.84-0.52-1.26c-0.78-1.84-1.69-3.65-2.62-5.47h70.84v2.44c0,0.18,0,0.35,0.01,0.53V311.22
		c-0.01,0.18-0.01,0.35-0.01,0.53v104.57h-74.42c-1.06-1.99-2.17-4-1.04-6.54c0.2-0.45-0.38-1.26-0.66-1.9
		c-6.53-14.01-13.06-28.03-19.61-42.06c-5.88-12.59-11.79-25.18-17.69-37.75c-2.77-5.97-5.54-11.92-8.34-17.87V173.88h69.42
		l-16.28,73.91l124.73,27.46v26.21h5.48v-25l10.62,2.33v22.67h7.3V280.4l72.72,16.02l33.14-150.53L254.51,97.26z M216.59,423.3
		c0.42-0.52,0.66-1.02,0.73-1.51h72.67v8.65h-70.7c-0.36-0.77-0.75-1.51-1.11-2.26c-0.38-0.77-0.77-1.54-1.11-2.32
		C216.74,425.06,216.23,423.74,216.59,423.3z M152.14,430.44v-70.71c1.95,4.1,3.9,8.19,5.82,12.3c1.61,3.46,3.21,6.93,4.8,10.4
		v39.36h18.34c0.14,0.33,0.29,0.66,0.45,0.99c0.44,0.94,1.21,2.39,1.94,2.46c1.95,0.18,2.08,1.7,2.74,2.83
		c0.01,0.03,0.03,0.07,0.05,0.11c0.4,0.71,0.69,1.49,1.02,2.26H152.14z M168.23,416.32v-21.98c0.19,0.41,0.39,0.83,0.57,1.23
		c3.21,6.93,6.44,13.85,9.71,20.75H168.23z M212.01,438.52c0.28,0.57,0.53,1.12,0.8,1.66c0.83,1.68,1.63,3.34,2.5,5.08
		c-0.49,0.23-0.98,0.45-1.47,0.69c-0.02,0-0.02,0-0.02,0c-1.11,0.51-2.19,1-3.32,1.52c-0.39,0.16-0.77,0.34-1.15,0.51
		c-0.28-0.57-0.55-1.13-0.82-1.68c-0.53-1.12-1.06-2.19-1.59-3.29c-0.26-0.56-0.53-1.11-0.8-1.68c1.95-0.93,3.77-1.8,5.85-2.81
		H212.01z M211.94,429.93c0.04,0.13,0.02,0.31-0.04,0.51c0,0.02-0.02,0.05-0.02,0.07c-0.03,0.13-0.11,0.24-0.16,0.35
		c-0.07,0.13-0.16,0.25-0.26,0.36c-0.07,0.1-0.16,0.17-0.25,0.22c-1.84,0.88-3.69,1.74-5.55,2.58c-0.05,0.01-0.11,0.05-0.16,0.07
		c-0.92,0.4-1.81,0.82-2.72,1.22c-0.9,0.4-1.79,0.81-2.7,1.21c-0.11-0.26-0.24-0.5-0.35-0.75c-0.16-0.38-0.35-0.77-0.53-1.15
		c-0.04-0.11-0.09-0.2-0.13-0.29c-0.05-0.08-0.09-0.15-0.11-0.24h-0.01c-0.1-0.22-0.2-0.46-0.31-0.69
		c-0.19-0.37-0.37-0.77-0.55-1.17c1.26-0.59,2.53-1.19,3.79-1.79c0.08-0.02,0.13-0.05,0.2-0.09c1.7-0.79,3.42-1.59,5.13-2.39
		c1.04-0.48,2.06-0.95,3.1-1.44C210.94,427.76,211.57,428.8,211.94,429.93z M208.45,416.32c0.33,0.69,0.64,1.36,0.95,2.06
		c0.09,0.22,0.2,0.44,0.29,0.67c0.04,0.08,0.06,0.13,0.1,0.2c0.01,0.06,0.05,0.13,0.07,0.19c-1.68,0.78-3.34,1.57-5.02,2.35
		c-3.91,1.82-7.83,3.67-11.82,5.55c-0.17-0.33-0.33-0.66-0.5-0.99c-0.27-0.55-0.55-1.09-0.84-1.68c-0.23-0.43-0.47-0.91-0.73-1.42
		c0.97-0.46,1.94-0.91,2.9-1.35c0.08-0.04,0.17-0.07,0.24-0.11c0.37-0.18,0.73-0.36,1.11-0.53c1.57-0.73,3.16-1.46,4.75-2.21
		c1.24-0.58,2.5-1.17,3.76-1.75c0.69-0.33,1.39-0.66,2.1-0.98c0.73-0.33,1.46-0.68,2.19-1.03
		C208.16,415.64,208.31,415.99,208.45,416.32z M195.35,383.61v0.02c3.96,8.47,7.72,16.52,11.52,24.66
		c-5.92,2.73-11.65,5.38-17.38,8.03c-1.04,0.49-2.1,0.96-3.15,1.46c-0.22-0.5-0.46-0.97-0.68-1.46
		c-4.51-9.62-8.98-19.24-13.48-28.84c-1.32-2.81-2.63-5.62-3.95-8.43c-0.91-1.95-1.82-3.89-2.73-5.84v-0.02l-2.74-5.85
		c-3.54-7.56-7.08-15.13-10.62-22.7v-0.02c-1.21-2.59-2.43-5.2-3.65-7.8c0,0,0,0,0-0.01c-1.21-2.59-2.45-5.2-3.65-7.81
		c-0.33-0.7-0.64-1.37-0.97-2.07c-1.49-3.21-3.01-6.44-4.51-9.67c-3.21-6.88-6.44-13.76-9.65-20.66c3.4-1.58,6.77-3.17,10.18-4.78
		c1.65-0.76,3.29-1.53,4.95-2.31c1.2-0.57,2.43-1.14,3.65-1.72c0.56-0.25,1.11-0.53,1.68-0.78c0.36,0.78,0.73,1.57,1.11,2.35
		c0.29,0.62,0.58,1.22,0.86,1.83c0,0.01,0,0.01,0,0.01c0.33,0.7,0.66,1.37,0.97,2.07c0.96,2.06,1.93,4.12,2.9,6.18
		c1.93,4.13,3.85,8.21,5.78,12.36c-1.24,0.6-2.48,1.18-3.7,1.77c-1.24,0.58-2.47,1.16-3.69,1.77c-0.07,0.03-0.14,0.07-0.2,0.09
		c-0.07,0.03-0.13,0.07-0.2,0.11c-0.4,0.2-0.71,0.43-0.97,0.69c-0.71,0.68-0.95,1.46-0.82,2.41c0.06,0.25,0.11,0.53,0.2,0.8
		c0.11,0.28,0.22,0.57,0.37,0.88c1.71,3.65,3.41,7.33,5.11,11.02c0.8,1.75,1.62,3.5,2.42,5.24v0.02c0.82,1.75,1.63,3.5,2.45,5.25
		c0.07,0.17,0.16,0.35,0.24,0.51c0.84,1.77,1.68,3.54,2.5,5.31c0.89,1.86,1.78,3.73,2.66,5.59c0.02,0.05,0.06,0.09,0.07,0.14
		c1.7,3.58,3.4,7.17,5.09,10.75c3.33,7.03,6.61,14.05,9.91,21.08c0.84,1.79,1.9,2.52,3.38,2.3c0.35-0.06,0.71-0.15,1.09-0.31
		c0.19-0.09,0.39-0.19,0.61-0.28c1.16-0.56,2.31-1.11,3.48-1.66c0.71-0.33,1.43-0.67,2.16-1
		C194.4,384.07,194.88,383.85,195.35,383.61z M192.58,377.88c-1.57,0.7-3.05,1.35-4.84,2.14c-6.5-13.91-12.97-27.79-19.51-41.75
		v-0.02c-0.91-1.95-1.82-3.89-2.73-5.84c-0.92-1.95-1.83-3.91-2.74-5.86c-1.04-2.21-2.06-4.42-3.1-6.62
		c1.13-0.51,2.13-0.95,3.1-1.39c0.56-0.27,1.13-0.53,1.71-0.79c0.35,0.73,0.68,1.46,1.03,2.19c0.91,1.96,1.82,3.91,2.73,5.84
		c0,0.02,0,0.02,0,0.02C176.37,343.19,184.46,360.49,192.58,377.88z M162.76,168.41v130.06c-1.06-2.3-2.14-4.58-3.21-6.88
		c-1.65-3.49-3.21-6.97-5-10.37c-0.55-1.08-1.66-1.84-2.41-2.85V158.92h88.8l-2.08,9.49H162.76z M246.63,173.88l0.6-2.73l0.6-2.74
		l2.1-9.49l1.61-7.3l7.88-35.82l16.08,35.82l1.64,3.65l1.64,3.65l4.27,9.49l1.23,2.74l1.22,2.73l4.8,10.68l-56.9,49.45
		L246.63,173.88z M237.27,242.32l56.79-49.39l30.82,68.66L237.27,242.32z M300.99,186.91l-3.76-8.37l-2.08-4.66l-1.24-2.73
		l-1.22-2.74l-4.27-9.49l-1.63-3.65l-1.64-3.65l-19.25-42.87l89.07,19.62l13.85,3.05l89.07,19.62l-57.74,50.14l-6.93,6.04
		l-23.72,20.62l-3.65,3.18l-3.65,3.16l-10.62,9.23l-2.74,2.39l-2.74,2.37l-12.68,11.03L300.99,186.91z M369.5,271.42l-7.3-1.6
		l-10.62-2.36l-5.48-1.2l-5.91-1.3l5.91-5.14l2.74-2.38l2.74-2.39l10.62-9.23l3.65-3.18l3.65-3.15l27.46-23.89l30.82,68.65
		L369.5,271.42z M436.41,281.97l-32.51-72.39l59.91-52.07L436.41,281.97z"/>
	<path class="st0" d="M397.49,301.46h-97.21c-5.5,0-10,4.34-10.28,9.76v129.49c0.28,5.43,4.78,9.77,10.28,9.77h97.21
		c5.68,0,10.29-4.62,10.29-10.3V311.75C407.78,306.08,403.17,301.46,397.49,301.46z M400.48,440.18c0,1.65-1.35,3-2.99,3h-97.21
		c-1.66,0-2.99-1.35-2.99-3V338.19h103.19V440.18z"/>
	<path class="st0" d="M409.81,467.89c-13.69,0.25-27.38,0.21-41.03-0.16c-13.57-0.37-27.09-1.5-40.69-1.55
		c-6.53-0.02-13.19,0.32-19.53,1.27c-6.06,0.91-11.69,2.45-17.53,3.67c-5.01,1.05-10.37,1.95-15.79,1.67
		c-5.28-0.28-8.04-1.81-11.06-3.86c-3.94-2.67-8.6-4.65-15.48-4.74c-7.04-0.1-13.83,1.83-19.66,3.73c-6.33,2.07-0.45,7.09,5.9,5.02
		c3.98-1.3,9.61-3.31,14.54-2.75c4.54,0.51,6.92,3.69,9.99,5.23c7.93,3.99,20.33,3.93,30.45,2.2c5.79-0.99,11.21-2.47,16.88-3.62
		c5.86-1.18,11.79-1.76,18.02-1.87c13.08-0.22,26.13,0.95,39.13,1.38c15.29,0.5,30.63,0.59,45.97,0.31
		C417.33,473.69,417.23,467.75,409.81,467.89z"/>
</g>
</svg>
